<svg width="24" height="25" viewBox="0 0 24 25" fill="none" xmlns="http://www.w3.org/2000/svg">
<path d="M20.4361 9.23952C18.9614 10.1454 18.0506 11.6983 18.0506 13.4238C18.0506 15.365 19.2217 17.1336 21 17.867C20.653 18.9885 20.1325 20.0238 19.4819 20.9729C18.5277 22.3101 17.5301 23.6905 16.0554 23.6905C14.5807 23.6905 14.147 22.8278 12.412 22.8278C10.7205 22.8278 10.1133 23.7336 8.7253 23.7336C7.33735 23.7336 6.38313 22.4827 5.2988 20.9297C3.86747 18.7729 3.04337 16.2709 3 13.6395C3 9.36894 5.7759 7.08266 8.55181 7.08266C10.0265 7.08266 11.241 8.03168 12.1518 8.03168C13.0193 8.03168 14.4072 7.03953 16.0554 7.03953C17.7904 6.99639 19.4386 7.816 20.4361 9.23952ZM15.2747 5.22776C16.012 4.36502 16.4024 3.28658 16.4458 2.16502C16.4458 2.0356 16.4458 1.86305 16.4024 1.73364C15.1446 1.86305 13.9735 2.46698 13.1494 3.416C12.412 4.2356 11.9783 5.2709 11.9349 6.39247C11.9349 6.52188 11.9349 6.65129 11.9783 6.7807C12.0651 6.7807 12.1952 6.82384 12.2819 6.82384C13.453 6.73756 14.5373 6.13364 15.2747 5.22776Z" fill="black"/>
</svg>
