<svg width="24" height="25" viewBox="0 0 24 25" fill="none" xmlns="http://www.w3.org/2000/svg">
<path d="M11.3174 12.2786L2.55695 21.4373C2.84138 22.4043 3.75156 23.1439 4.8324 23.1439C5.28749 23.1439 5.68569 23.0301 6.02701 22.8025L15.9252 17.1708L11.3174 12.2786Z" fill="#EA4335"/>
<path d="M20.1916 10.6859L15.9251 8.23975L11.1467 12.4493L15.982 17.1709L20.2485 14.7817C20.988 14.3835 21.5 13.5871 21.5 12.7338C21.4431 11.8805 20.9311 11.0841 20.1916 10.6859Z" fill="#FBBC04"/>
<path d="M2.55689 4.03003C2.5 4.20069 2.5 4.42823 2.5 4.65578V20.8684C2.5 21.0959 2.5 21.2666 2.55689 21.4941L11.6587 12.563L2.55689 4.03003Z" fill="#4285F4"/>
<path d="M11.3743 12.7337L15.9252 8.23967L6.08389 2.6648C5.74258 2.43726 5.28749 2.32349 4.8324 2.32349C3.75156 2.32349 2.78449 3.06301 2.55695 4.03008L11.3743 12.7337Z" fill="#34A853"/>
</svg>
