<svg width="20" height="7" viewBox="0 0 20 7" fill="none" xmlns="http://www.w3.org/2000/svg">
<path fill-rule="evenodd" clip-rule="evenodd" d="M16.971 2.87218L15.481 0.847032L15.332 0.716752H16.807L17.802 2.24588L17.882 2.18418L18.482 1.33617C18.557 1.24353 18.59 1.12648 18.575 1.01047C18.56 0.894462 18.497 0.788902 18.4 0.716752H19.785L18.183 2.86988V4.43328L18.465 4.75328H16.735L16.976 4.43788C16.976 3.91908 16.956 3.39108 16.976 2.87218H16.971ZM12.929 0.716752C13.025 0.810562 13.084 0.932142 13.098 1.06189C13.108 1.13937 13.097 1.21787 13.067 1.29046L11.961 4.33508C11.887 4.48798 11.78 4.62378 11.645 4.73278H12.85C12.761 4.66398 12.702 4.56758 12.681 4.46078C12.659 4.38598 12.659 4.30698 12.681 4.23218L12.922 3.50988H14.327L14.546 4.06758C14.569 4.12338 14.582 4.18188 14.587 4.24128C14.602 4.33618 14.588 4.43298 14.549 4.52128C14.509 4.60948 14.445 4.68578 14.363 4.74188H16.255C16.069 4.59948 15.915 4.42208 15.804 4.22078L14.421 0.705322L12.929 0.716752ZM14.134 3.00248H13.129L13.611 1.68588L14.13 3.00248H14.134ZM9.09497 0.719032H11.2039C11.5099 0.719642 11.803 0.835181 12.019 1.04038C12.236 1.24557 12.358 1.52369 12.358 1.81388V1.94878C12.354 2.23618 12.232 2.51068 12.017 2.71328C11.802 2.91588 11.512 3.03038 11.209 3.03218L10.681 3.04818C10.879 2.94588 11.038 2.78758 11.136 2.59538C11.234 2.40318 11.266 2.18668 11.228 1.97618C11.187 1.63788 11.004 1.31333 10.698 1.30646H10.505V4.30308C10.504 4.35118 10.519 4.39838 10.548 4.43788C10.606 4.52388 10.671 4.60558 10.741 4.68248L10.797 4.74648H9.15796L9.22797 4.65728C9.27897 4.59318 9.32196 4.52328 9.35596 4.44928C9.37696 4.40638 9.38696 4.35958 9.38696 4.31218V1.08703C9.37996 0.917891 9.20397 0.821892 9.09497 0.719032Z" fill="#005BAA"/>
<path fill-rule="evenodd" clip-rule="evenodd" d="M0.214966 0.698242H1.53796L2.64896 3.71766L3.59097 1.2171C3.60797 1.14419 3.59398 1.0678 3.55298 1.00453C3.50198 0.901673 3.44695 0.803382 3.39395 0.702812H4.38196C4.32396 0.906242 4.23696 1.13024 4.16196 1.33595L2.88495 4.86056C2.50195 4.80236 2.14297 4.64406 1.84897 4.40336C1.65097 4.20186 1.50798 3.95796 1.43198 3.69256L0.363953 0.997673C0.321953 0.894703 0.271966 0.794652 0.214966 0.698242ZM5.49695 2.11766V4.27536C5.49695 4.36226 5.51897 4.37826 5.57697 4.44906L5.83698 4.77136H4.59097L4.80096 4.46736C4.85196 4.40826 4.87996 4.33366 4.87796 4.25706V1.23766L4.52896 0.698242H5.81998L7.90997 3.26056V1.22624C7.91197 1.14925 7.88496 1.07397 7.83496 1.01367C7.76496 0.910813 7.68996 0.812533 7.61996 0.711963H8.85397L8.61298 1.0251C8.55598 1.09367 8.53397 1.10967 8.53397 1.19881V4.86056C8.28097 4.84816 8.03497 4.78436 7.81097 4.67356C7.58697 4.56266 7.38996 4.40746 7.23495 4.21826L5.49695 2.11766Z" fill="#ED1C24"/>
<path d="M1.53795 6.13137C1.53795 6.29137 1.61095 6.37597 1.79595 6.37597C1.86895 6.37597 1.94095 6.36357 2.00795 6.33937C2.04195 6.32567 2.05196 6.33937 2.05196 6.36917V6.38737C2.05196 6.41487 2.05195 6.42627 2.00795 6.44227C1.94195 6.46707 1.86994 6.47877 1.79894 6.47657C1.54294 6.47657 1.42296 6.36917 1.42296 6.13137V5.90287C1.41596 5.85467 1.41994 5.80547 1.43694 5.75927C1.45294 5.71307 1.47995 5.67107 1.51595 5.63657C1.55195 5.60207 1.59595 5.57587 1.64495 5.56027C1.69395 5.54457 1.74495 5.53977 1.79595 5.54627C1.86595 5.54667 1.93597 5.55907 2.00097 5.58287C2.03497 5.59427 2.04195 5.60797 2.04195 5.63537V5.65367C2.04195 5.68797 2.02796 5.69717 1.99596 5.68567C1.93196 5.65947 1.86194 5.64617 1.79094 5.64687C1.61294 5.64687 1.54995 5.72917 1.54995 5.90737L1.53795 6.13137Z" fill="#009EDB"/>
<path d="M1.79799 6.47886C1.53999 6.47886 1.41996 6.36696 1.41996 6.13146V5.90286C1.41296 5.85446 1.41697 5.80516 1.43397 5.75876C1.44997 5.71236 1.47799 5.67016 1.51399 5.63556C1.54999 5.60096 1.59496 5.57496 1.64396 5.55946C1.69296 5.54396 1.74497 5.53946 1.79597 5.54636C1.86597 5.54676 1.93499 5.55916 2.00099 5.58286C2.03699 5.59666 2.04399 5.61036 2.04399 5.63776V5.65606C2.04399 5.67436 2.04399 5.68576 2.04399 5.69036C2.04399 5.69496 2.02498 5.69036 2.00798 5.69036C1.94298 5.66596 1.87299 5.65356 1.80299 5.65376C1.62999 5.65376 1.56196 5.73376 1.56196 5.91206V6.14066C1.56196 6.30746 1.63897 6.38286 1.81797 6.38286C1.88897 6.38376 1.95999 6.37136 2.02699 6.34636C2.04599 6.34636 2.05597 6.34636 2.06297 6.34636C2.07097 6.34636 2.06297 6.36236 2.06297 6.38066V6.39896C2.06297 6.42866 2.06297 6.44006 2.01997 6.45376C1.94897 6.47846 1.87299 6.48706 1.79799 6.47886ZM1.79799 5.54866C1.74699 5.54156 1.69498 5.54606 1.64598 5.56166C1.59698 5.57726 1.55197 5.60356 1.51597 5.63846C1.47997 5.67346 1.45199 5.71596 1.43599 5.76266C1.42099 5.80936 1.41697 5.85896 1.42497 5.90746V6.13606C1.42497 6.36466 1.54498 6.47886 1.80098 6.47886C1.87198 6.48276 1.94298 6.47096 2.00798 6.44466C2.04398 6.43086 2.05098 6.41946 2.05098 6.39206V6.36916C2.05098 6.35096 2.05098 6.34176 2.05098 6.33716C2.05098 6.33266 2.03697 6.33716 2.01997 6.33716C1.95197 6.36226 1.87996 6.37466 1.80796 6.37376C1.62996 6.37376 1.54799 6.29836 1.54799 6.12916V5.90066C1.54799 5.72006 1.62699 5.64006 1.80299 5.64006C1.87399 5.63896 1.94496 5.65136 2.00996 5.67666C2.02496 5.67666 2.03397 5.67666 2.04197 5.67666C2.04397 5.67156 2.04496 5.66616 2.04496 5.66066C2.04496 5.65506 2.04397 5.64966 2.04197 5.64466V5.62636C2.04197 5.60116 2.04197 5.58746 1.99797 5.57376C1.93297 5.55286 1.86497 5.54356 1.79597 5.54636L1.79799 5.54866Z" fill="#009EDB"/>
<path d="M2.20801 5.54643C2.20801 5.50753 2.208 5.50073 2.254 5.50073H2.271C2.309 5.50073 2.31699 5.50073 2.31699 5.54643V5.86873C2.34499 5.83433 2.38098 5.80763 2.42398 5.79113C2.46598 5.77473 2.51198 5.76913 2.55798 5.77493C2.72898 5.77493 2.82999 5.84353 2.82999 6.00353V6.41493C2.82999 6.45153 2.83 6.45843 2.784 6.45843H2.76498C2.72598 6.45843 2.71899 6.45843 2.71899 6.41493V6.01953C2.71899 5.90983 2.66801 5.86183 2.53101 5.86183C2.39401 5.86183 2.32898 5.91443 2.32898 6.04243V6.41953C2.32898 6.45613 2.32899 6.46293 2.28299 6.46293H2.26599C2.22999 6.46293 2.22 6.46293 2.22 6.41953L2.20801 5.54643Z" fill="#009EDB"/>
<path d="M2.77194 6.46059H2.75293C2.71393 6.46059 2.70694 6.46059 2.70694 6.41489V6.01949C2.70694 5.90749 2.65092 5.86399 2.51892 5.86399C2.38592 5.86399 2.31894 5.91659 2.31894 6.04229V6.41949C2.31894 6.45599 2.31894 6.46519 2.27094 6.46519H2.25394C2.21494 6.46519 2.20593 6.46519 2.20593 6.41949V5.54629C2.20593 5.50519 2.20594 5.49829 2.25394 5.49829H2.27094C2.30894 5.49829 2.31894 5.49829 2.31894 5.54629V5.86399C2.34694 5.83009 2.38393 5.80389 2.42593 5.78779C2.46893 5.77179 2.51494 5.76649 2.55994 5.77259C2.74094 5.77259 2.83194 5.85489 2.83194 6.01949V6.43089C2.82994 6.46059 2.81294 6.46059 2.77194 6.46059ZM2.51892 5.85489C2.65392 5.85489 2.70892 5.90289 2.70892 6.01489V6.41489C2.70892 6.45149 2.70893 6.45599 2.75293 6.45599H2.77194C2.80994 6.45599 2.81793 6.45599 2.81793 6.41489V6.00349C2.81793 5.84119 2.72594 5.76119 2.54794 5.76119C2.50194 5.75329 2.45593 5.75789 2.41293 5.77449C2.36993 5.79109 2.33295 5.81899 2.30695 5.85489V5.54629C2.30695 5.50979 2.30694 5.50289 2.26294 5.50289H2.24692C2.20992 5.50289 2.20093 5.50289 2.20093 5.54629V6.43089C2.20093 6.46749 2.20092 6.47199 2.24692 6.47199H2.26294C2.30194 6.47199 2.30695 6.47199 2.30695 6.43089V6.04229C2.31395 5.91429 2.37692 5.85949 2.51892 5.85949V5.85489Z" fill="#009EDB"/>
<path d="M2.974 6.18393V6.05593C2.974 5.86173 3.083 5.76343 3.297 5.76343C3.512 5.76343 3.61798 5.86393 3.61798 6.05593V6.18393C3.61798 6.38053 3.512 6.47653 3.297 6.47653C3.083 6.47653 2.974 6.37593 2.974 6.18393ZM3.50699 6.05593C3.50699 5.92113 3.456 5.86173 3.297 5.86173C3.138 5.86173 3.08499 5.92113 3.08499 6.05593V6.18393C3.08499 6.31883 3.138 6.37823 3.297 6.37823C3.456 6.37823 3.50699 6.31883 3.50699 6.18393V6.05593Z" fill="#009EDB"/>
<path d="M3.29798 6.47884C3.07598 6.47884 2.97498 6.38514 2.97498 6.18404V6.05604C2.97098 6.01474 2.97496 5.97314 2.98896 5.93384C3.00296 5.89444 3.02496 5.85824 3.05396 5.82744C3.12196 5.77514 3.20796 5.74904 3.29496 5.75434C3.51396 5.75434 3.61598 5.84804 3.61598 6.04914V6.17714C3.62198 6.21824 3.61796 6.26014 3.60496 6.29954C3.59096 6.33904 3.56797 6.37484 3.53697 6.40424C3.50597 6.43354 3.46798 6.45554 3.42698 6.46854C3.38498 6.48154 3.34098 6.48504 3.29798 6.47884ZM3.29798 5.76574C3.21098 5.75914 3.12399 5.78454 3.05699 5.83664C3.02699 5.86704 3.00398 5.90324 2.99098 5.94264C2.97698 5.98214 2.97197 6.02384 2.97697 6.06514V6.19314C2.97697 6.39204 3.07798 6.48344 3.29798 6.48344C3.38498 6.49074 3.47098 6.46534 3.53898 6.41264C3.56798 6.38214 3.59098 6.34594 3.60398 6.30654C3.61798 6.26704 3.62296 6.22534 3.61796 6.18404V6.05604C3.61596 5.85714 3.51398 5.77484 3.29798 5.77484V5.76574ZM3.29798 6.38064C3.14298 6.38064 3.08299 6.32574 3.08299 6.18404V6.05604C3.08299 5.91434 3.14098 5.85944 3.29798 5.85944C3.45398 5.85944 3.50996 5.91434 3.50996 6.05604V6.18404C3.50996 6.32804 3.45198 6.38064 3.29798 6.38064ZM3.29798 5.86404C3.14298 5.86404 3.08796 5.91434 3.08796 6.05604V6.18404C3.08796 6.32344 3.14598 6.37604 3.29798 6.37604C3.44898 6.37604 3.50697 6.32574 3.50697 6.18404V6.05604C3.50697 5.91434 3.44898 5.86404 3.29798 5.86404Z" fill="#009EDB"/>
<path d="M4.14996 6.05135C4.14996 5.86855 4.25397 5.76335 4.47797 5.76335C4.52197 5.76205 4.56496 5.76825 4.60596 5.78165C4.64196 5.78165 4.65198 5.80225 4.65198 5.83425V5.84795C4.65198 5.88225 4.65196 5.89365 4.60596 5.88225C4.56596 5.86805 4.52296 5.86105 4.48096 5.86165C4.31696 5.86165 4.26096 5.92335 4.26096 6.05365V6.18855C4.26096 6.32795 4.32595 6.37825 4.50195 6.37825C4.54695 6.37975 4.59096 6.37355 4.63196 6.35995C4.66596 6.34855 4.67596 6.35995 4.67596 6.39425V6.40795C4.67596 6.43765 4.67597 6.44905 4.62997 6.45825C4.58597 6.47165 4.53895 6.47785 4.49295 6.47655C4.26895 6.47655 4.16296 6.38505 4.16296 6.18855L4.14996 6.05135Z" fill="#009EDB"/>
<path d="M4.48096 6.47898C4.39396 6.48378 4.30796 6.45858 4.23996 6.40808C4.20896 6.37788 4.18597 6.34178 4.17197 6.30238C4.15797 6.26288 4.15296 6.22098 4.15796 6.17948V6.04238C4.15496 6.00348 4.16096 5.96448 4.17496 5.92788C4.18896 5.89128 4.21096 5.85788 4.23996 5.82978C4.30596 5.77488 4.39296 5.74688 4.48096 5.75208C4.52396 5.75168 4.56697 5.75788 4.60797 5.77038C4.64697 5.77038 4.65396 5.79328 4.65396 5.82528V5.83898C4.65396 5.85948 4.65396 5.87098 4.65396 5.87548C4.64896 5.87828 4.64196 5.87978 4.63596 5.87978C4.62996 5.87978 4.62395 5.87828 4.61795 5.87548C4.57795 5.86338 4.53495 5.85718 4.49295 5.85728C4.33595 5.85728 4.27295 5.91208 4.27295 6.04698V6.18178C4.27295 6.31898 4.33598 6.36928 4.51398 6.36928C4.55898 6.37098 4.60296 6.36478 4.64496 6.35098C4.66096 6.35098 4.67098 6.35098 4.67798 6.35098C4.68598 6.35098 4.68997 6.36698 4.68997 6.38748V6.40128C4.68997 6.43328 4.68997 6.44468 4.64197 6.45378C4.58997 6.47128 4.53596 6.47978 4.48096 6.47898ZM4.48096 5.76578C4.26596 5.76578 4.15497 5.86408 4.15497 6.05148V6.18868C4.15497 6.38528 4.25897 6.47438 4.48297 6.47438C4.52897 6.47538 4.57596 6.46998 4.61996 6.45838C4.65696 6.45838 4.66595 6.43778 4.66595 6.40808V6.39438C4.66595 6.37608 4.66595 6.36468 4.66595 6.36008C4.66595 6.35548 4.64895 6.36008 4.63495 6.36008C4.59195 6.37258 4.54695 6.37878 4.50195 6.37838C4.33595 6.37838 4.26096 6.32348 4.26096 6.18638V6.05148C4.26096 5.91438 4.32597 5.85728 4.48297 5.85728C4.52597 5.85678 4.56797 5.86378 4.60797 5.87778C4.62497 5.87778 4.63497 5.87778 4.64197 5.87778C4.64897 5.87778 4.64197 5.86178 4.64197 5.84348V5.82978C4.64197 5.80008 4.64197 5.78868 4.59897 5.77728C4.55897 5.77098 4.51797 5.77018 4.47797 5.77498L4.48096 5.76578Z" fill="#009EDB"/>
<path d="M4.87796 6.21614C4.87796 6.32584 4.92597 6.37844 5.07297 6.37844C5.21997 6.37844 5.26797 6.32814 5.26797 6.21614V5.82074C5.26797 5.78644 5.26796 5.77734 5.31696 5.77734H5.33096C5.37196 5.77734 5.37897 5.77734 5.37897 5.82074V6.21614C5.37897 6.38534 5.28997 6.47674 5.07297 6.47674C4.85597 6.47674 4.75696 6.38984 4.75696 6.21614V5.82074C4.75696 5.78644 4.75697 5.77734 4.80597 5.77734H4.81998C4.86098 5.77734 4.86795 5.77734 4.86795 5.82074L4.87796 6.21614Z" fill="#009EDB"/>
<path d="M5.07297 6.4789C4.87097 6.4789 4.76697 6.3898 4.76697 6.2161V5.8207C4.76697 5.7864 4.76696 5.7749 4.81296 5.7749H4.82996C4.87096 5.7749 4.87796 5.7749 4.87796 5.8207V6.2161C4.87796 6.3327 4.93297 6.3761 5.07297 6.3761C5.21297 6.3761 5.26596 6.3327 5.26596 6.2161V5.8207C5.26596 5.7864 5.26596 5.7749 5.31696 5.7749H5.33096C5.37396 5.7749 5.37897 5.7749 5.37897 5.8207V6.2161C5.38297 6.2513 5.37797 6.2868 5.36597 6.3203C5.35397 6.3538 5.33496 6.3845 5.30896 6.4104C5.24296 6.4609 5.15797 6.4855 5.07297 6.4789ZM4.81296 5.7749C4.77896 5.7749 4.76996 5.7749 4.76996 5.8161V6.2115C4.76596 6.2471 4.77097 6.283 4.78397 6.3165C4.79697 6.3501 4.81796 6.3806 4.84396 6.4058C4.91296 6.4561 4.99896 6.479 5.08496 6.4698C5.12796 6.4743 5.17095 6.4708 5.21295 6.4594C5.25395 6.448 5.29296 6.429 5.32596 6.4035C5.35196 6.3781 5.37097 6.3479 5.38297 6.3147C5.39497 6.2816 5.39997 6.2464 5.39597 6.2115V5.8207C5.39597 5.7887 5.39598 5.7795 5.34998 5.7795H5.33597C5.29997 5.7795 5.28998 5.7795 5.28998 5.8207V6.2161C5.28998 6.3349 5.23496 6.3807 5.09296 6.3807C4.94996 6.3807 4.89496 6.3349 4.89496 6.2161V5.8207C4.89496 5.7887 4.89497 5.7795 4.84897 5.7795L4.81296 5.7749Z" fill="#009EDB"/>
<path d="M5.526 6.18396V6.05596C5.526 5.86166 5.632 5.76336 5.849 5.76336C6.066 5.76336 6.16699 5.86396 6.16699 6.05596V6.18396C6.16699 6.38056 6.061 6.47656 5.849 6.47656C5.637 6.47656 5.526 6.37596 5.526 6.18396ZM6.05899 6.05596C6.05899 5.92116 6.008 5.86166 5.849 5.86166C5.69 5.86166 5.63498 5.92116 5.63498 6.05596V6.18396C5.63498 6.31886 5.69 6.37826 5.849 6.37826C6.008 6.37826 6.05899 6.31886 6.05899 6.18396V6.05596ZM5.746 5.58056C5.779 5.53026 5.801 5.51196 5.849 5.51196C5.898 5.51196 5.917 5.52566 5.953 5.58056L6.008 5.66286C6.025 5.68796 6.00798 5.69486 5.98898 5.69486C5.97698 5.69676 5.964 5.69466 5.953 5.68886C5.942 5.68296 5.93399 5.67386 5.92899 5.66286L5.89499 5.60796C5.87299 5.56916 5.84898 5.56916 5.82498 5.60796L5.79401 5.66286C5.78901 5.67356 5.77998 5.68256 5.76898 5.68826C5.75898 5.69406 5.74601 5.69636 5.73401 5.69486H5.71899C5.68999 5.69486 5.686 5.69486 5.702 5.66286L5.746 5.58056ZM5.79898 6.59996C5.80898 6.59056 5.822 6.58426 5.836 6.58176C5.85 6.57926 5.86398 6.58066 5.87698 6.58596C5.88998 6.59116 5.902 6.59996 5.909 6.61126C5.917 6.62246 5.92099 6.63566 5.92099 6.64916C5.92099 6.66256 5.917 6.67576 5.909 6.68706C5.902 6.69826 5.88998 6.70706 5.87698 6.71226C5.86398 6.71756 5.85 6.71896 5.836 6.71656C5.822 6.71406 5.80898 6.70766 5.79898 6.69826C5.79198 6.69186 5.78599 6.68426 5.78299 6.67576C5.77899 6.66736 5.77701 6.65826 5.77701 6.64916C5.77701 6.63996 5.77899 6.63086 5.78299 6.62246C5.78599 6.61406 5.79198 6.60636 5.79898 6.59996Z" fill="#009EDB"/>
<path d="M5.84994 6.71876C5.83094 6.71816 5.81291 6.71076 5.79891 6.69806C5.78591 6.68526 5.77794 6.66816 5.77694 6.65016C5.77694 6.64086 5.77891 6.63156 5.78191 6.62286C5.78591 6.61416 5.79191 6.60636 5.79891 6.59986C5.80491 6.59316 5.81292 6.58786 5.82192 6.58426C5.83092 6.58076 5.83994 6.57906 5.84994 6.57936C5.86894 6.57936 5.88794 6.58676 5.90194 6.60006C5.91594 6.61336 5.92391 6.63136 5.92391 6.65016C5.92491 6.65916 5.92294 6.66816 5.91894 6.67646C5.91494 6.68476 5.90992 6.69216 5.90292 6.69816C5.89592 6.70476 5.88692 6.70996 5.87792 6.71346C5.86892 6.71706 5.85894 6.71876 5.84994 6.71876ZM5.84994 6.58156C5.83994 6.58156 5.83092 6.58346 5.82192 6.58696C5.81292 6.59046 5.80491 6.59566 5.79891 6.60216C5.78591 6.61516 5.77893 6.63246 5.77993 6.65016C5.77993 6.66786 5.78691 6.68476 5.79891 6.69806C5.81291 6.71006 5.83094 6.71696 5.84994 6.71696C5.86794 6.71696 5.88593 6.71026 5.89993 6.69816C5.90693 6.69196 5.91192 6.68456 5.91592 6.67626C5.91992 6.66806 5.92193 6.65916 5.92193 6.65016C5.92093 6.63216 5.91293 6.61506 5.89993 6.60236C5.88693 6.58956 5.86894 6.58216 5.84994 6.58156ZM5.84994 6.47876C5.62794 6.47876 5.52392 6.38506 5.52392 6.18386V6.05586C5.51992 6.01446 5.52594 5.97276 5.53994 5.93346C5.55394 5.89406 5.57692 5.85796 5.60592 5.82736C5.67392 5.77466 5.75992 5.74846 5.84692 5.75416C6.06592 5.75416 6.16793 5.84786 6.16793 6.04906V6.17706C6.17393 6.21806 6.16991 6.26006 6.15691 6.29946C6.14291 6.33886 6.11992 6.37476 6.08892 6.40406C6.05792 6.43346 6.01994 6.45546 5.97894 6.46846C5.93694 6.48146 5.89294 6.48496 5.84994 6.47876ZM5.84994 5.76556C5.76294 5.75856 5.67594 5.78396 5.60894 5.83646C5.57894 5.86696 5.55593 5.90316 5.54293 5.94256C5.52893 5.98196 5.52392 6.02376 5.52892 6.06506V6.19306C5.52892 6.39186 5.62994 6.48336 5.84994 6.48336C5.93694 6.49016 6.02294 6.46476 6.09094 6.41246C6.11994 6.38196 6.14294 6.34576 6.15594 6.30636C6.16994 6.26696 6.17492 6.22516 6.16992 6.18386V6.05586C6.16792 5.85706 6.06594 5.77476 5.84994 5.77476V5.76556ZM5.84994 6.38046C5.69494 6.38046 5.63491 6.32556 5.63491 6.18386V6.05586C5.63491 5.91416 5.69294 5.85936 5.84994 5.85936C6.00594 5.85936 6.05892 5.91416 6.05892 6.05586V6.18386C6.05892 6.32786 6.00394 6.38046 5.84994 6.38046ZM5.84994 5.86386C5.69494 5.86386 5.63793 5.91416 5.63793 6.05586V6.18386C5.63793 6.32336 5.69794 6.37586 5.84994 6.37586C6.00094 6.37586 6.05694 6.32556 6.05694 6.18386V6.05586C6.05694 5.91416 6.00094 5.86386 5.84994 5.86386ZM5.98892 5.69706C5.97692 5.69876 5.96394 5.69636 5.95294 5.69006C5.94194 5.68386 5.93292 5.67416 5.92892 5.66276L5.89492 5.61016C5.89492 5.58956 5.87093 5.58046 5.86193 5.58046C5.86193 5.58046 5.83794 5.58046 5.82794 5.61016L5.79394 5.66276C5.78994 5.67416 5.78092 5.68386 5.76992 5.69006C5.75992 5.69636 5.74694 5.69876 5.73394 5.69706H5.71893C5.70293 5.69706 5.69493 5.69706 5.69293 5.69706C5.69093 5.69706 5.69293 5.68336 5.69293 5.67186L5.74792 5.58956C5.78492 5.53936 5.80394 5.52106 5.85394 5.52106C5.90494 5.52106 5.92194 5.53476 5.95794 5.58956L6.01293 5.67186C6.01293 5.68336 6.02793 5.69246 6.01293 5.69706C5.99893 5.70156 6.00592 5.69706 5.98892 5.69706ZM5.84994 5.57816C5.84994 5.57816 5.87392 5.57816 5.88592 5.60786L5.91894 5.66276C5.92394 5.67356 5.93192 5.68266 5.94192 5.68856C5.95292 5.69436 5.96492 5.69656 5.97692 5.69476C5.99392 5.69476 6.00093 5.69476 6.00393 5.69476C6.00593 5.69476 6.00393 5.69476 6.00393 5.67186L5.96291 5.58276C5.92891 5.52786 5.90693 5.51416 5.86193 5.51416C5.81593 5.51416 5.79393 5.53016 5.75793 5.58276L5.70294 5.66506C5.70294 5.66506 5.70294 5.68336 5.70294 5.68786C5.70294 5.69246 5.70292 5.68786 5.72692 5.68786H5.72192C5.73392 5.68896 5.74591 5.68636 5.75591 5.68066C5.76691 5.67496 5.77493 5.66626 5.77993 5.65586L5.81292 5.60106C5.82492 5.58736 5.83794 5.57816 5.84994 5.57816Z" fill="#009EDB"/>
<path d="M6.30994 6.05135C6.30994 5.86855 6.41293 5.76335 6.63693 5.76335C6.68093 5.76205 6.72392 5.76825 6.76492 5.78165C6.80092 5.78165 6.81094 5.80225 6.81094 5.83425V5.84795C6.81094 5.88225 6.81092 5.89365 6.76492 5.88225C6.72492 5.86775 6.68292 5.86085 6.63992 5.86165C6.47592 5.86165 6.42093 5.92335 6.42093 6.05365V6.18855C6.42093 6.32795 6.48593 6.37825 6.64893 6.37825C6.69393 6.37955 6.73892 6.37335 6.78192 6.35995C6.81592 6.34855 6.82492 6.35995 6.82492 6.39425V6.40795C6.82492 6.43765 6.82495 6.44905 6.77695 6.45825C6.73395 6.47165 6.68794 6.47785 6.64194 6.47655C6.41594 6.47655 6.30994 6.38505 6.30994 6.18855V6.05135Z" fill="#009EDB"/>
<path d="M6.64197 6.47898C6.55497 6.48458 6.46997 6.45938 6.40097 6.40808C6.36997 6.37828 6.34698 6.34218 6.33298 6.30268C6.31898 6.26308 6.31397 6.22098 6.31897 6.17948V6.04238C6.31597 6.00368 6.32197 5.96478 6.33597 5.92818C6.34897 5.89158 6.37096 5.85808 6.39896 5.82978C6.46496 5.77488 6.55195 5.74688 6.63995 5.75208C6.68395 5.75188 6.72796 5.75808 6.76996 5.77038C6.80596 5.77038 6.81296 5.79328 6.81296 5.82528V5.83898C6.81296 5.85948 6.81296 5.87098 6.81296 5.87548C6.80796 5.87828 6.80195 5.87978 6.79495 5.87978C6.78895 5.87978 6.78298 5.87828 6.77698 5.87548C6.73698 5.86338 6.69398 5.85718 6.65198 5.85728C6.49798 5.85728 6.43295 5.91208 6.43295 6.04698V6.18178C6.43295 6.31898 6.49496 6.36928 6.66196 6.36928C6.70596 6.37098 6.74996 6.36478 6.79196 6.35098C6.79696 6.34858 6.80397 6.34738 6.80997 6.34738C6.81597 6.34738 6.82197 6.34858 6.82797 6.35098C6.82797 6.35098 6.82797 6.36698 6.82797 6.38748V6.40128C6.82797 6.43328 6.82795 6.44468 6.78195 6.45378C6.73695 6.46868 6.68997 6.47718 6.64197 6.47898ZM6.64197 5.76578C6.42997 5.76578 6.31696 5.86408 6.31696 6.05148V6.18868C6.31696 6.38528 6.42097 6.47438 6.64697 6.47438C6.69297 6.47508 6.73795 6.46968 6.78195 6.45838C6.81795 6.45838 6.82797 6.43778 6.82797 6.40808V6.39438C6.82797 6.37608 6.82797 6.36468 6.82797 6.36008C6.82797 6.35548 6.81097 6.36008 6.79697 6.36008C6.75397 6.37258 6.70897 6.37878 6.66397 6.37838C6.49797 6.37838 6.42297 6.32348 6.42297 6.18638V6.05148C6.42297 5.91438 6.48796 5.85728 6.64496 5.85728C6.68796 5.85678 6.73197 5.86378 6.77197 5.87778C6.78897 5.87778 6.79896 5.87778 6.80396 5.87778C6.80896 5.87778 6.80396 5.86178 6.80396 5.84348V5.82978C6.80396 5.80008 6.80395 5.78868 6.75995 5.77728C6.71995 5.77058 6.67797 5.76988 6.63797 5.77498L6.64197 5.76578Z" fill="#009EDB"/>
<path d="M7.30994 6.38742C7.30994 6.35312 7.30994 6.34402 7.35794 6.35092C7.42794 6.37022 7.49993 6.38022 7.57193 6.38062C7.68593 6.38062 7.73093 6.36002 7.73093 6.30062C7.73093 6.24112 7.70693 6.23202 7.63693 6.20002L7.45892 6.12002C7.36492 6.07662 7.32193 6.03542 7.32193 5.93942C7.32193 5.84342 7.40794 5.77492 7.58194 5.77492C7.64394 5.77452 7.70592 5.78302 7.76492 5.80002C7.79892 5.80002 7.80893 5.82062 7.80893 5.85262V5.86632C7.80893 5.90062 7.80894 5.90742 7.76294 5.89832C7.70294 5.88072 7.64193 5.87222 7.57993 5.87312C7.47093 5.87312 7.42993 5.89372 7.42993 5.95092C7.42993 6.00802 7.45693 6.01942 7.50693 6.04232L7.69495 6.12232C7.79395 6.16802 7.84192 6.20912 7.84192 6.30972C7.84192 6.41032 7.75294 6.48802 7.56494 6.48802C7.49494 6.48882 7.42494 6.48032 7.35794 6.46292C7.31894 6.45142 7.30994 6.44002 7.30994 6.41032V6.38742Z" fill="#009EDB"/>
<path d="M7.56494 6.47888C7.49394 6.47898 7.42392 6.46978 7.35492 6.45138C7.31892 6.45138 7.30994 6.43088 7.30994 6.39888C7.30994 6.38058 7.30994 6.36908 7.30994 6.36458C7.30994 6.35998 7.32893 6.36458 7.34793 6.36458C7.41793 6.38278 7.48993 6.39198 7.56293 6.39198C7.67793 6.39198 7.72192 6.37138 7.72192 6.31428C7.72192 6.25708 7.69993 6.24798 7.62793 6.21598L7.44693 6.13368C7.35793 6.09258 7.30994 6.05138 7.30994 5.95308C7.30994 5.85488 7.39393 5.77488 7.57193 5.77488C7.63493 5.77368 7.69692 5.78298 7.75592 5.80228C7.79192 5.80228 7.80093 5.82288 7.80093 5.85488V5.86858C7.80593 5.87958 7.80593 5.89178 7.80093 5.90288C7.78893 5.90768 7.77494 5.90768 7.76294 5.90288C7.70494 5.88398 7.64294 5.87468 7.58194 5.87538C7.47594 5.87538 7.43494 5.89828 7.43494 5.95308C7.43594 5.97348 7.44394 5.99298 7.45694 6.00898C7.47094 6.02498 7.48892 6.03658 7.50992 6.04228L7.69794 6.12458C7.79394 6.16568 7.84494 6.20908 7.84494 6.31198C7.84494 6.41488 7.75294 6.47888 7.56494 6.47888ZM7.32394 6.35088H7.30994C7.30994 6.35088 7.30994 6.36688 7.30994 6.38288C7.30994 6.41258 7.30992 6.42398 7.35492 6.43308C7.42292 6.45098 7.49293 6.45948 7.56293 6.45828C7.75293 6.45828 7.83694 6.40568 7.83694 6.28228C7.83694 6.15888 7.78693 6.13828 7.69293 6.09708L7.50494 6.01488C7.48294 6.00958 7.46394 5.99788 7.44894 5.98138C7.43494 5.96498 7.42693 5.94468 7.42493 5.92338C7.42493 5.86628 7.46893 5.84338 7.57693 5.84338C7.63893 5.84288 7.70092 5.85208 7.75992 5.87088C7.77692 5.87088 7.78695 5.87088 7.79395 5.87088C7.79595 5.86578 7.79694 5.86028 7.79694 5.85488C7.79694 5.84928 7.79595 5.84388 7.79395 5.83888V5.82508C7.79395 5.79308 7.79395 5.78628 7.75095 5.77488C7.69195 5.75678 7.62993 5.74818 7.56793 5.74968C7.39193 5.74968 7.30994 5.80458 7.30994 5.92338C7.30994 6.04228 7.35495 6.06058 7.44495 6.10168L7.62292 6.18398C7.69492 6.21598 7.71893 6.24108 7.71893 6.28458C7.71893 6.32798 7.67592 6.36458 7.55792 6.36458C7.48492 6.36448 7.41194 6.35518 7.34094 6.33708L7.32394 6.35088Z" fill="#009EDB"/>
<path d="M7.98193 6.18405V6.05605C7.98193 5.86175 8.08993 5.76345 8.30493 5.76345C8.51893 5.76345 8.62494 5.86405 8.62494 6.05605V6.18405C8.62494 6.38065 8.51893 6.47665 8.30493 6.47665C8.08993 6.47665 7.98193 6.37605 7.98193 6.18405ZM8.51492 6.05605C8.51492 5.92125 8.46593 5.86175 8.30493 5.86175C8.14293 5.86175 8.09293 5.92125 8.09293 6.05605V6.18405C8.09293 6.31895 8.14593 6.37835 8.30493 6.37835C8.46393 6.37835 8.51492 6.31895 8.51492 6.18405V6.05605ZM8.20093 5.58065C8.23693 5.53035 8.25693 5.51205 8.30493 5.51205C8.35293 5.51205 8.37494 5.52575 8.40894 5.58065L8.46594 5.66295C8.48294 5.68805 8.46593 5.69495 8.44693 5.69495C8.43493 5.69685 8.42192 5.69475 8.41092 5.68885C8.39992 5.68305 8.39193 5.67395 8.38693 5.66295L8.35294 5.60805C8.32894 5.56925 8.30493 5.56925 8.28293 5.60805L8.24994 5.66295C8.23494 5.69035 8.22093 5.69495 8.18893 5.69495C8.15793 5.69495 8.15292 5.69495 8.16992 5.66295L8.20093 5.58065ZM8.57492 5.49835C8.56892 5.50885 8.55992 5.51755 8.54892 5.52315C8.53692 5.52885 8.52493 5.53135 8.51193 5.53035H8.49792C8.46392 5.53035 8.45892 5.53035 8.47592 5.49605L8.53592 5.38405C8.54192 5.37005 8.55192 5.35815 8.56592 5.35065C8.57892 5.34315 8.59493 5.34045 8.61093 5.34295H8.62494C8.66394 5.34295 8.67093 5.34295 8.64993 5.38175L8.57492 5.49835Z" fill="#009EDB"/>
<path d="M8.30492 6.47895C8.08592 6.47895 7.98193 6.38525 7.98193 6.18415V6.05615C7.97793 6.01485 7.98291 5.97325 7.99691 5.93395C8.01091 5.89455 8.03291 5.85835 8.06191 5.82755C8.12991 5.77565 8.21594 5.74955 8.30294 5.75435C8.52194 5.75435 8.62594 5.84815 8.62594 6.04925V6.17725C8.62794 6.38065 8.51992 6.47895 8.30492 6.47895ZM8.30492 5.76585C8.21792 5.75925 8.13193 5.78465 8.06393 5.83665C8.03493 5.86715 8.01192 5.90335 7.99892 5.94275C7.98492 5.98225 7.97992 6.02395 7.98492 6.06525V6.19325C7.98492 6.39215 8.08592 6.48355 8.30492 6.48355C8.39192 6.49085 8.47892 6.46545 8.54592 6.41265C8.57592 6.38215 8.59893 6.34605 8.61193 6.30655C8.62593 6.26715 8.63094 6.22535 8.62594 6.18415V6.05615C8.61394 5.85725 8.52192 5.77495 8.30492 5.77495V5.76585ZM8.30492 6.38065C8.15092 6.38065 8.09093 6.32585 8.09093 6.18415V6.05615C8.09093 5.91435 8.14892 5.85955 8.30492 5.85955C8.46192 5.85955 8.51693 5.91435 8.51693 6.05615V6.18415C8.51693 6.32815 8.45992 6.38065 8.30492 6.38065ZM8.30492 5.86415C8.15092 5.86415 8.09594 5.91435 8.09594 6.05615V6.18415C8.09594 6.32355 8.15392 6.37615 8.30492 6.37615C8.45692 6.37615 8.51492 6.32585 8.51492 6.18415V6.05615C8.51492 5.91435 8.45692 5.86415 8.30492 5.86415ZM8.44793 5.69725C8.43493 5.69915 8.42094 5.69675 8.40994 5.69055C8.39894 5.68435 8.38991 5.67455 8.38491 5.66295L8.35091 5.61035C8.32991 5.57155 8.30793 5.57155 8.28393 5.61035L8.25192 5.66295C8.24792 5.67455 8.23892 5.68435 8.22692 5.69055C8.21592 5.69675 8.20293 5.69915 8.18993 5.69725C8.17293 5.69725 8.16091 5.69725 8.16091 5.69725C8.16091 5.69725 8.16091 5.68355 8.16091 5.67215L8.21593 5.58985C8.24993 5.53955 8.27194 5.52125 8.31994 5.52125C8.36794 5.52125 8.38993 5.53495 8.42593 5.58985L8.48092 5.67215C8.48092 5.68355 8.48092 5.69265 8.48092 5.69725C8.48092 5.70185 8.46393 5.69725 8.44793 5.69725ZM8.30492 5.57835C8.30492 5.57835 8.32991 5.57835 8.34191 5.60815L8.37493 5.66295C8.37993 5.67375 8.38893 5.68265 8.39993 5.68845C8.41093 5.69415 8.42294 5.69645 8.43594 5.69495C8.44994 5.69495 8.46194 5.69495 8.46194 5.69495C8.46194 5.69495 8.46194 5.69495 8.46194 5.67215L8.40691 5.58985C8.36991 5.53495 8.35094 5.52125 8.30294 5.52125C8.25494 5.52125 8.23593 5.53725 8.20193 5.58985L8.14593 5.67215C8.14593 5.67215 8.14593 5.69035 8.14593 5.69495C8.14593 5.69955 8.14594 5.69495 8.17294 5.69495C8.18494 5.69615 8.19794 5.69365 8.20794 5.68795C8.21894 5.68225 8.22793 5.67355 8.23293 5.66295L8.26394 5.60815C8.28094 5.58755 8.29292 5.57835 8.30492 5.57835ZM8.51293 5.53265H8.49792C8.47892 5.53265 8.46691 5.53265 8.46691 5.53265C8.46291 5.52315 8.46291 5.51255 8.46691 5.50295L8.52993 5.39095C8.53093 5.38225 8.53494 5.37385 8.53994 5.36655C8.54494 5.35915 8.55193 5.35295 8.55993 5.34815C8.56793 5.34345 8.57693 5.34035 8.58593 5.33905C8.59493 5.33775 8.60491 5.33835 8.61391 5.34065H8.62792C8.64992 5.34065 8.66393 5.34065 8.66393 5.34065C8.66393 5.34065 8.66393 5.35665 8.66393 5.37495L8.59191 5.48925C8.58591 5.50385 8.57493 5.51605 8.55993 5.52395C8.54593 5.53175 8.52893 5.53485 8.51293 5.53265ZM8.61092 5.34295C8.59592 5.34105 8.58092 5.34405 8.56792 5.35155C8.55492 5.35895 8.54393 5.37045 8.53893 5.38415L8.47692 5.49615C8.47692 5.51215 8.47692 5.51895 8.47692 5.52355C8.47692 5.52815 8.47694 5.52355 8.50494 5.52355H8.51992C8.53292 5.52375 8.54493 5.52075 8.55593 5.51465C8.56693 5.50865 8.57594 5.49985 8.58294 5.48925L8.65493 5.37495C8.65493 5.35895 8.66893 5.34985 8.65493 5.34525C8.63993 5.34065 8.63993 5.34525 8.62093 5.34525L8.61092 5.34295Z" fill="#009EDB"/>
<path d="M8.89096 6.41943C8.89096 6.45593 8.89097 6.46283 8.84497 6.46283H8.82797C8.79197 6.46283 8.77997 6.46283 8.77997 6.41943V6.02393C8.77997 5.85023 8.88395 5.76343 9.08795 5.76343C9.29295 5.76343 9.39197 5.85483 9.39197 6.02393V6.41943C9.39197 6.45593 9.39198 6.46283 9.34598 6.46283H9.33698C9.29598 6.46283 9.28796 6.46283 9.28796 6.41943V6.02393C9.28796 5.91193 9.24298 5.86173 9.09598 5.86173C8.94898 5.86173 8.89795 5.91423 8.89795 6.02393L8.89096 6.41943Z" fill="#009EDB"/>
<path d="M9.33696 6.46056C9.29596 6.46056 9.28593 6.46056 9.28593 6.41486V6.02406C9.28593 5.90746 9.23496 5.86406 9.09596 5.86406C8.95596 5.86406 8.90095 5.90746 8.90095 6.02406V6.41946C8.90095 6.45606 8.89994 6.46516 8.85194 6.46516H8.83494C8.79894 6.46516 8.78694 6.46516 8.78694 6.41946V6.02406C8.78694 5.85026 8.89096 5.76116 9.09596 5.76116C9.13896 5.75696 9.18194 5.76086 9.22294 5.77266C9.26494 5.78436 9.30296 5.80376 9.33696 5.82976C9.36196 5.85556 9.38194 5.88616 9.39494 5.91956C9.40694 5.95306 9.41195 5.98866 9.40895 6.02406V6.41946C9.39495 6.46056 9.38696 6.46056 9.33696 6.46056ZM9.09596 5.85946C9.23796 5.85946 9.29094 5.90516 9.29094 6.02406V6.41946C9.29094 6.45606 9.29096 6.46056 9.33696 6.46056C9.37496 6.46056 9.38194 6.46056 9.38194 6.41946V6.02406C9.38594 5.98896 9.38093 5.95376 9.36793 5.92056C9.35593 5.88746 9.33595 5.85726 9.30995 5.83206C9.24795 5.78926 9.17196 5.76896 9.09596 5.77486C9.00996 5.76566 8.92293 5.78856 8.85493 5.83886C8.82793 5.86406 8.80696 5.89446 8.79396 5.92806C8.77996 5.96156 8.77493 5.99736 8.77793 6.03316V6.42856C8.77793 6.46516 8.77795 6.46976 8.82295 6.46976H8.85493C8.89293 6.46976 8.90095 6.46976 8.90095 6.42856V6.02406C8.89095 5.90516 8.94596 5.85946 9.09596 5.85946Z" fill="#009EDB"/>
<path d="M10.154 6.02174C10.154 6.18174 10.055 6.26404 9.85001 6.26404C9.79901 6.25874 9.74699 6.25874 9.69599 6.26404C9.68499 6.26574 9.67601 6.27114 9.66901 6.27914C9.66201 6.28714 9.65901 6.29724 9.66001 6.30744C9.66001 6.32574 9.66 6.33944 9.698 6.34634C9.749 6.35004 9.80001 6.35004 9.85001 6.34634C9.93301 6.34084 10.016 6.35584 10.091 6.38974C10.116 6.40604 10.136 6.42844 10.149 6.45464C10.161 6.48074 10.167 6.50964 10.163 6.53834C10.167 6.56924 10.162 6.60054 10.149 6.62924C10.137 6.65804 10.117 6.68334 10.091 6.70294C10.017 6.73994 9.93401 6.75654 9.85001 6.75094C9.76701 6.75584 9.68301 6.73924 9.60901 6.70294C9.58501 6.68604 9.56699 6.66384 9.55399 6.63824C9.54199 6.61264 9.537 6.58464 9.539 6.55664C9.538 6.52684 9.54499 6.49734 9.55899 6.47114C9.57399 6.44494 9.596 6.42314 9.624 6.40804C9.605 6.40084 9.58901 6.38804 9.57801 6.37164C9.56701 6.35524 9.56199 6.33594 9.56299 6.31664C9.56299 6.25494 9.602 6.21834 9.681 6.20694C9.641 6.19044 9.60699 6.16194 9.58499 6.12564C9.56299 6.08944 9.55299 6.04734 9.55799 6.00574V6.00344C9.55799 5.85264 9.672 5.77494 9.862 5.77494C9.914 5.77384 9.96601 5.78314 10.014 5.80234L10.098 5.73144C10.122 5.71094 10.134 5.71094 10.159 5.73144C10.183 5.75204 10.183 5.76344 10.159 5.78634L10.093 5.85034C10.115 5.87074 10.131 5.89514 10.142 5.92184C10.153 5.94854 10.158 5.97714 10.156 6.00574L10.154 6.02174ZM9.70801 6.44694C9.68601 6.45744 9.667 6.47394 9.655 6.49424C9.643 6.51444 9.637 6.53774 9.638 6.56114C9.638 6.65264 9.69301 6.67544 9.85001 6.67544C10.007 6.67544 10.062 6.65264 10.062 6.55894C10.062 6.46514 10.009 6.45604 9.85001 6.45604C9.80301 6.45634 9.75501 6.45324 9.70801 6.44694ZM10.043 6.00344C10.043 5.90514 9.97801 5.85714 9.85001 5.85714C9.72201 5.85714 9.655 5.90514 9.655 6.00344V6.02174C9.655 6.12004 9.70301 6.17034 9.85001 6.17034C9.99701 6.17034 10.043 6.12004 10.043 6.02174V6.00344Z" fill="#009EDB"/>
<path d="M9.84996 6.76686C9.76696 6.77286 9.68296 6.75706 9.60896 6.72116C9.58496 6.70366 9.56694 6.68106 9.55394 6.65516C9.54194 6.62926 9.53695 6.60086 9.53895 6.57256C9.53695 6.54336 9.54296 6.51416 9.55696 6.48806C9.57096 6.46196 9.59193 6.43986 9.61793 6.42406C9.59993 6.41616 9.58496 6.40316 9.57396 6.38686C9.56396 6.37056 9.55896 6.35156 9.56096 6.33256C9.56096 6.27166 9.59895 6.23506 9.67595 6.22286C9.63595 6.20576 9.60295 6.17706 9.58195 6.14086C9.55995 6.10476 9.55095 6.06306 9.55595 6.02176V6.00346C9.55495 5.96986 9.56194 5.93646 9.57594 5.90566C9.58994 5.87486 9.61095 5.84736 9.63795 5.82516C9.70195 5.78006 9.78195 5.75746 9.86195 5.76116C9.91395 5.76006 9.96596 5.76946 10.014 5.78856L10.0979 5.72006C10.1219 5.69716 10.1339 5.69716 10.1579 5.72006C10.1729 5.73146 10.178 5.73826 10.178 5.74746C10.178 5.75656 10.1779 5.76346 10.1579 5.77716L10.0929 5.83886C10.1149 5.85886 10.1319 5.88306 10.1439 5.90986C10.1549 5.93666 10.1599 5.96546 10.1579 5.99426V6.01256C10.1579 6.17256 10.0549 6.25486 9.85194 6.25486C9.80094 6.24936 9.74895 6.24936 9.69795 6.25486C9.68795 6.25696 9.67996 6.26226 9.67296 6.26976C9.66696 6.27726 9.66395 6.28656 9.66395 6.29606C9.66395 6.31426 9.67593 6.32576 9.69993 6.33256C9.75093 6.33676 9.80194 6.33676 9.85194 6.33256C9.93894 6.32506 10.0269 6.34006 10.1049 6.37606C10.1299 6.39226 10.1499 6.41476 10.1619 6.44096C10.1749 6.46716 10.1789 6.49616 10.1749 6.52456C10.1789 6.55596 10.1749 6.58786 10.1619 6.61706C10.1499 6.64636 10.1289 6.67196 10.1029 6.69146C10.0279 6.73856 9.93996 6.76466 9.84996 6.76686ZM9.84996 5.76576C9.66196 5.76576 9.54893 5.85486 9.54893 5.99426V6.01256C9.54393 6.05386 9.55296 6.09566 9.57396 6.13176C9.59596 6.16786 9.62896 6.19656 9.66896 6.21376C9.58996 6.22516 9.55095 6.25946 9.55095 6.32116C9.55095 6.34036 9.55594 6.35916 9.56694 6.37546C9.57694 6.39166 9.59295 6.40456 9.61095 6.41256C9.58495 6.42756 9.56293 6.44916 9.54893 6.47486C9.53393 6.50066 9.52794 6.52976 9.52894 6.55886C9.52694 6.58656 9.53296 6.61436 9.54396 6.63976C9.55596 6.66526 9.57394 6.68766 9.59694 6.70516C9.67194 6.73986 9.75494 6.75566 9.83794 6.75086C9.92094 6.75676 10.0039 6.74096 10.0789 6.70516C10.1039 6.68556 10.1239 6.66026 10.1369 6.63156C10.1489 6.60286 10.154 6.57156 10.151 6.54056C10.155 6.51246 10.15 6.48406 10.138 6.45826C10.125 6.43246 10.1059 6.41036 10.0809 6.39426C10.0059 6.36036 9.92295 6.34536 9.83995 6.35086C9.78895 6.35606 9.73696 6.35606 9.68596 6.35086C9.67596 6.34936 9.66693 6.34456 9.66093 6.33756C9.65393 6.33046 9.64995 6.32146 9.64995 6.31206C9.64895 6.30186 9.65195 6.29176 9.65895 6.28366C9.66595 6.27566 9.67496 6.27026 9.68596 6.26856C9.73696 6.26286 9.78895 6.26286 9.83995 6.26856C9.92495 6.27666 10.0109 6.25556 10.0809 6.20916C10.1069 6.18616 10.1269 6.15796 10.1399 6.12676C10.1529 6.09556 10.158 6.06206 10.156 6.02856V6.00346C10.158 5.97496 10.1529 5.94646 10.1409 5.91996C10.1299 5.89356 10.113 5.86976 10.091 5.85026L10.156 5.78626C10.17 5.78626 10.1749 5.76576 10.1749 5.75886C10.1739 5.75376 10.1719 5.74896 10.1699 5.74456C10.1669 5.74026 10.1629 5.73656 10.1579 5.73376H10.1459C10.1249 5.71316 10.1119 5.71316 10.0879 5.73376L10.004 5.80456C9.95495 5.78436 9.90296 5.77416 9.84996 5.77486V5.76576ZM9.84996 6.68006C9.68596 6.68006 9.63795 6.65256 9.63795 6.56346C9.63495 6.53986 9.63994 6.51606 9.65294 6.49546C9.66594 6.47496 9.68496 6.45876 9.70796 6.44916C9.75496 6.45196 9.80196 6.45196 9.84996 6.44916C10.009 6.44916 10.0639 6.46516 10.0639 6.55426C10.0639 6.64346 10.011 6.68916 9.84996 6.68916V6.68006ZM9.70796 6.45146C9.68596 6.46146 9.66796 6.47756 9.65596 6.49756C9.64396 6.51756 9.63794 6.54056 9.63994 6.56346C9.63994 6.65026 9.68796 6.67776 9.84996 6.67776C10.011 6.67776 10.0589 6.65026 10.0589 6.56116C10.0589 6.47206 10.009 6.45826 9.84996 6.45826C9.80296 6.46186 9.75496 6.46266 9.70796 6.46056V6.45146ZM9.84996 6.17486C9.70996 6.17486 9.65495 6.13146 9.65495 6.02406V6.00346C9.65495 5.90286 9.71696 5.85486 9.84996 5.85486C9.98196 5.85486 10.0449 5.90516 10.0449 6.00346V6.02176C10.0449 6.12916 9.98996 6.17256 9.84996 6.17256V6.17486ZM9.84996 5.85946C9.71996 5.85946 9.65694 5.90746 9.65694 6.00576V6.02406C9.65694 6.12916 9.71196 6.17256 9.84996 6.17256C9.98696 6.17256 10.043 6.12916 10.043 6.02406V6.00346C10.043 5.90746 9.97796 5.85716 9.84996 5.85716V5.85946Z" fill="#009EDB"/>
<path d="M11.45 5.66073C11.45 5.69043 11.45 5.69953 11.409 5.69953H11.322V6.18643C11.322 6.38073 11.214 6.47673 10.999 6.47673C10.785 6.47673 10.679 6.38073 10.679 6.18643V6.05613C10.675 6.01753 10.679 5.97863 10.693 5.94213C10.707 5.90563 10.729 5.87263 10.759 5.84553C10.788 5.81853 10.823 5.79813 10.862 5.78583C10.901 5.77363 10.942 5.76993 10.983 5.77493C11.029 5.76773 11.076 5.77343 11.119 5.79123C11.162 5.80913 11.198 5.83843 11.224 5.87553V5.71093H11.023C10.99 5.71093 10.983 5.71093 10.983 5.67213C10.983 5.64243 10.983 5.63323 11.023 5.63323H11.224V5.54643C11.224 5.50753 11.224 5.50073 11.269 5.50073H11.264C11.301 5.50073 11.313 5.50073 11.313 5.54643V5.62183H11.399C11.431 5.62183 11.44 5.62183 11.44 5.66073H11.45ZM10.783 6.18413C10.783 6.31893 10.831 6.37843 10.992 6.37843C11.154 6.37843 11.204 6.31893 11.204 6.18413V6.05613C11.204 5.92123 11.154 5.86183 10.992 5.86183C10.831 5.86183 10.783 5.92123 10.783 6.05613V6.18413Z" fill="#009EDB"/>
<path d="M10.9989 6.47889C10.9119 6.48489 10.8259 6.45869 10.7579 6.40579C10.7279 6.37529 10.7059 6.33909 10.6919 6.29969C10.6789 6.26019 10.6739 6.21849 10.6789 6.17719V6.04689C10.6739 6.00579 10.6789 5.96429 10.6919 5.92499C10.7049 5.88559 10.7269 5.84929 10.7559 5.81829C10.7879 5.78999 10.8259 5.76859 10.8679 5.75559C10.9089 5.74259 10.9529 5.73829 10.9969 5.74289C11.0399 5.73819 11.0849 5.74479 11.1239 5.76209C11.1639 5.77949 11.1989 5.80679 11.2229 5.84119V5.68349H11.0229C10.9899 5.68349 10.9799 5.68349 10.9799 5.64229C10.9799 5.61029 10.9799 5.60119 11.0229 5.60119H11.2209V5.54629C11.2209 5.50749 11.2209 5.49829 11.2689 5.49829H11.2639C11.2999 5.49829 11.3119 5.49829 11.3119 5.54629V5.61949H11.3989C11.4309 5.61949 11.4429 5.61949 11.4429 5.66059C11.4429 5.69029 11.4429 5.70179 11.3989 5.70179H11.3119V6.18629C11.3219 6.38059 11.2139 6.47889 10.9989 6.47889ZM10.9819 5.77489C10.9409 5.77169 10.8999 5.77639 10.8609 5.78849C10.8229 5.80069 10.7869 5.82019 10.7559 5.84579C10.7279 5.87719 10.7069 5.91359 10.6939 5.95279C10.6809 5.99209 10.6769 6.03339 10.6809 6.07429V6.20459C10.6759 6.24579 10.6799 6.28749 10.6929 6.32699C10.7059 6.36649 10.7279 6.40279 10.7579 6.43319C10.8259 6.48589 10.9119 6.51139 10.9989 6.50399C11.0859 6.51059 11.1719 6.48529 11.2399 6.43319C11.2699 6.40279 11.2929 6.36659 11.3059 6.32719C11.3199 6.28769 11.3249 6.24589 11.3199 6.20459V5.69719H11.4089C11.4379 5.69719 11.4499 5.69719 11.4499 5.66059C11.4499 5.63319 11.4499 5.62399 11.4089 5.62399H11.3199V5.54629C11.3199 5.50749 11.3199 5.50289 11.2739 5.50289H11.2639C11.2259 5.50289 11.2209 5.50289 11.2209 5.54629V5.62399H11.0229C10.9899 5.62399 10.9849 5.62399 10.9849 5.66059C10.9849 5.68799 10.9849 5.69719 11.0229 5.69719H11.2259V5.87089C11.1989 5.83419 11.1619 5.80559 11.1189 5.78849C11.0759 5.77149 11.0279 5.76679 10.9819 5.77489ZM10.9989 6.38979C10.8449 6.38979 10.7869 6.33719 10.7869 6.19319V6.06519C10.7869 5.92349 10.8469 5.86859 10.9989 5.86859C11.1509 5.86859 11.2139 5.92349 11.2139 6.06519V6.19319C11.2139 6.32579 11.1529 6.38059 10.9989 6.38059V6.38979ZM10.9989 5.87319C10.8499 5.87319 10.7899 5.92579 10.7899 6.06519V6.19319C10.7899 6.33489 10.8469 6.38519 10.9989 6.38519C11.1509 6.38519 11.2089 6.33489 11.2089 6.19319V6.06519C11.2089 5.91429 11.1529 5.86399 10.9989 5.86399V5.87319Z" fill="#009EDB"/>
<path d="M11.469 6.18393V6.05593C11.469 5.86173 11.575 5.76343 11.792 5.76343C11.954 5.76343 12.048 5.81593 12.089 5.91423C12.11 5.91423 12.132 5.87773 12.132 5.80453C12.132 5.78393 12.132 5.77713 12.166 5.77713H12.19C12.216 5.77713 12.221 5.77713 12.221 5.80453C12.221 5.91653 12.175 5.97143 12.106 5.98973C12.108 6.01173 12.108 6.03393 12.106 6.05593V6.18393C12.106 6.38053 12 6.47653 11.787 6.47653C11.575 6.47653 11.469 6.37593 11.469 6.18393ZM12.002 6.05593C12.002 5.92113 11.951 5.86173 11.792 5.86173C11.633 5.86173 11.578 5.92113 11.578 6.05593V6.18393C11.578 6.31883 11.633 6.37823 11.792 6.37823C11.951 6.37823 12.002 6.31883 12.002 6.18393V6.05593Z" fill="#009EDB"/>
<path d="M11.7919 6.47895C11.5699 6.47895 11.4669 6.38525 11.4669 6.18415V6.05615C11.4629 6.01475 11.4679 5.97305 11.4819 5.93365C11.4959 5.89435 11.5189 5.85815 11.5489 5.82755C11.6159 5.77485 11.7019 5.74865 11.7899 5.75445C11.9489 5.75445 12.0309 5.80245 12.0859 5.90525C12.1149 5.89385 12.1269 5.85725 12.1269 5.79785C12.1269 5.77495 12.1269 5.76815 12.1629 5.76815H12.1869C12.2139 5.76815 12.2209 5.76815 12.2209 5.79785C12.2209 5.89845 12.1819 5.96245 12.1049 5.98525C12.1069 6.00655 12.1069 6.02795 12.1049 6.04925V6.17725C12.1119 6.21785 12.1079 6.25935 12.0939 6.29835C12.0809 6.33735 12.0579 6.37295 12.0279 6.40215C11.9979 6.43145 11.9599 6.45365 11.9189 6.46695C11.8789 6.48025 11.8349 6.48435 11.7919 6.47895ZM11.7919 5.76585C11.7049 5.75875 11.6189 5.78415 11.5509 5.83665C11.5209 5.86715 11.4989 5.90335 11.4849 5.94275C11.4709 5.98225 11.4669 6.02395 11.4709 6.06525V6.19325C11.4709 6.39215 11.5729 6.48355 11.7919 6.48355C11.8789 6.49035 11.9649 6.46495 12.0329 6.41265C12.0629 6.38215 12.0849 6.34605 12.0989 6.30655C12.1129 6.26715 12.1169 6.22535 12.1119 6.18415V6.05615C12.1139 6.03405 12.1139 6.01195 12.1119 5.98985C12.1899 5.96695 12.2279 5.90525 12.2279 5.80465C12.2279 5.78415 12.2279 5.77955 12.1969 5.77955H12.1729C12.1489 5.77955 12.1409 5.77955 12.1409 5.80465C12.1409 5.86645 12.1269 5.90295 12.0959 5.91665C12.0429 5.81385 11.9509 5.77495 11.7919 5.77495V5.76585ZM11.7919 6.38065C11.6379 6.38065 11.5769 6.32585 11.5769 6.18415V6.05615C11.5769 5.91445 11.6349 5.85955 11.7919 5.85955C11.9489 5.85955 12.0019 5.91445 12.0019 6.05615V6.18415C12.0019 6.32815 11.9459 6.38065 11.7919 6.38065ZM11.7919 5.86415C11.6379 5.86415 11.5799 5.91445 11.5799 6.05615V6.18415C11.5799 6.32355 11.6399 6.37615 11.7919 6.37615C11.9439 6.37615 11.9989 6.32585 11.9989 6.18415V6.05615C11.9989 5.91445 11.9439 5.86415 11.7919 5.86415Z" fill="#009EDB"/>
<path d="M12.378 6.41943C12.378 6.45593 12.3779 6.46283 12.3289 6.46283H12.312C12.276 6.46283 12.267 6.46283 12.267 6.41943V6.02393C12.267 5.85023 12.37 5.76343 12.573 5.76343C12.775 5.76343 12.879 5.85483 12.879 6.02393V6.41943C12.879 6.45593 12.879 6.46283 12.831 6.46283H12.814C12.773 6.46283 12.766 6.46283 12.766 6.41943V6.02393C12.766 5.91193 12.722 5.86173 12.573 5.86173C12.423 5.86173 12.378 5.91423 12.378 6.02393V6.41943Z" fill="#009EDB"/>
<path d="M12.831 6.46056H12.814C12.773 6.46056 12.7649 6.46056 12.7649 6.41486V6.02406C12.7649 5.90746 12.712 5.86406 12.573 5.86406C12.433 5.86406 12.3769 5.90746 12.3769 6.02406V6.41946C12.3769 6.45606 12.3769 6.46516 12.3289 6.46516H12.3119C12.2759 6.46516 12.264 6.46516 12.264 6.41946V6.02406C12.264 5.85026 12.368 5.76116 12.573 5.76116C12.616 5.75696 12.6589 5.76086 12.6999 5.77266C12.7419 5.78436 12.78 5.80376 12.814 5.82976C12.84 5.85526 12.8599 5.88586 12.8719 5.91936C12.8849 5.95296 12.8889 5.98856 12.8859 6.02406V6.41946C12.8789 6.46056 12.871 6.46056 12.831 6.46056ZM12.573 5.85486C12.715 5.85486 12.768 5.90056 12.768 6.01946V6.41486C12.768 6.45146 12.768 6.45606 12.814 6.45606H12.831C12.869 6.45606 12.876 6.45606 12.876 6.41486V6.02406C12.879 5.98916 12.875 5.95416 12.862 5.92106C12.85 5.88806 12.831 5.85776 12.806 5.83206C12.773 5.80646 12.734 5.78746 12.693 5.77616C12.652 5.76476 12.608 5.76126 12.565 5.76576C12.479 5.75646 12.393 5.77946 12.324 5.82976C12.298 5.85496 12.277 5.88536 12.264 5.91886C12.25 5.95246 12.2449 5.98826 12.2469 6.02406V6.41946C12.2469 6.45606 12.247 6.46056 12.293 6.46056H12.31C12.349 6.46056 12.356 6.46056 12.356 6.41946V6.02406C12.375 5.90516 12.43 5.85946 12.573 5.85946V5.85486Z" fill="#009EDB"/>
<path d="M14.031 6.02174C14.031 6.18174 13.932 6.26404 13.73 6.26404C13.678 6.25864 13.625 6.25864 13.573 6.26404C13.562 6.26574 13.553 6.27114 13.546 6.27914C13.539 6.28714 13.536 6.29724 13.537 6.30744C13.537 6.32574 13.537 6.33944 13.575 6.34634C13.627 6.35014 13.678 6.35014 13.73 6.34634C13.813 6.34084 13.896 6.35584 13.971 6.38974C13.995 6.40644 14.014 6.42904 14.027 6.45514C14.039 6.48124 14.044 6.50994 14.041 6.53834C14.044 6.56924 14.039 6.60054 14.026 6.62924C14.014 6.65804 13.994 6.68334 13.968 6.70294C13.894 6.74014 13.811 6.75684 13.727 6.75094C13.639 6.75814 13.55 6.74154 13.472 6.70294C13.449 6.68554 13.431 6.66314 13.419 6.63764C13.407 6.61214 13.402 6.58434 13.404 6.55664C13.402 6.52714 13.409 6.49764 13.424 6.47154C13.438 6.44534 13.46 6.42334 13.486 6.40804C13.467 6.40084 13.451 6.38804 13.44 6.37164C13.43 6.35524 13.425 6.33594 13.426 6.31664C13.426 6.25494 13.465 6.21834 13.544 6.20694C13.504 6.19044 13.47 6.16194 13.447 6.12564C13.425 6.08944 13.416 6.04734 13.421 6.00574V6.00344C13.421 5.85264 13.535 5.77494 13.727 5.77494C13.779 5.77404 13.829 5.78334 13.877 5.80234L13.961 5.73144C13.985 5.71094 13.997 5.71094 14.021 5.73144C14.045 5.75204 14.045 5.76344 14.021 5.78634L13.956 5.85034C13.977 5.87074 13.994 5.89514 14.005 5.92184C14.015 5.94854 14.02 5.97714 14.019 6.00574L14.031 6.02174ZM13.585 6.44694C13.563 6.45744 13.545 6.47394 13.532 6.49424C13.52 6.51444 13.514 6.53774 13.515 6.56114C13.515 6.65264 13.571 6.67544 13.73 6.67544C13.889 6.67544 13.939 6.65264 13.939 6.55894C13.939 6.46514 13.886 6.45604 13.73 6.45604C13.681 6.45644 13.633 6.45334 13.585 6.44694ZM13.915 6.00344C13.915 5.90514 13.853 5.85714 13.725 5.85714C13.597 5.85714 13.53 5.90514 13.53 6.00344V6.02174C13.53 6.12004 13.575 6.17034 13.725 6.17034C13.874 6.17034 13.915 6.12004 13.915 6.02174V6.00344Z" fill="#009EDB"/>
<path d="M13.7299 6.76686C13.6419 6.77496 13.553 6.75916 13.474 6.72116C13.451 6.70366 13.4319 6.68106 13.4199 6.65516C13.4079 6.62926 13.4019 6.60086 13.4039 6.57256C13.4019 6.54306 13.409 6.51366 13.423 6.48746C13.438 6.46136 13.4599 6.43936 13.4859 6.42406C13.4669 6.41676 13.451 6.40406 13.44 6.38766C13.43 6.37116 13.4249 6.35196 13.4259 6.33256C13.4259 6.27166 13.4649 6.23506 13.5419 6.22286C13.5019 6.20576 13.4689 6.17706 13.4469 6.14086C13.4249 6.10476 13.4159 6.06306 13.4209 6.02176V6.00346C13.4199 5.96986 13.4269 5.93646 13.4409 5.90566C13.4549 5.87486 13.4759 5.84736 13.5029 5.82516C13.5689 5.77966 13.6489 5.75706 13.7299 5.76116C13.7809 5.76026 13.8319 5.76966 13.8789 5.78856L13.9629 5.72006C13.9879 5.69716 13.9999 5.69716 14.0239 5.72006C14.0379 5.73146 14.043 5.73826 14.043 5.74746C14.043 5.75656 14.0429 5.76346 14.0239 5.77716L13.961 5.83886C13.982 5.85926 13.999 5.88366 14.009 5.91036C14.02 5.93716 14.0249 5.96576 14.0239 5.99426V6.01256C14.0239 6.17256 13.92 6.25486 13.72 6.25486C13.668 6.24926 13.6149 6.24926 13.5629 6.25486C13.5539 6.25696 13.545 6.26226 13.539 6.26976C13.533 6.27726 13.529 6.28656 13.53 6.29606C13.53 6.31426 13.5299 6.32576 13.5659 6.33256C13.6169 6.33676 13.669 6.33676 13.72 6.33256C13.803 6.32716 13.886 6.34206 13.961 6.37606C13.986 6.39216 14.0059 6.41456 14.0189 6.44076C14.0319 6.46696 14.0369 6.49596 14.0329 6.52456C14.0369 6.55616 14.0319 6.58806 14.0189 6.61726C14.0059 6.64656 13.9849 6.67206 13.9589 6.69146C13.8899 6.73466 13.8109 6.76066 13.7299 6.76686ZM13.7299 5.76576C13.5389 5.76576 13.4259 5.85486 13.4259 5.99426V6.01256C13.4209 6.05386 13.4299 6.09566 13.4519 6.13176C13.4729 6.16786 13.5069 6.19656 13.5469 6.21376C13.4669 6.22516 13.431 6.25946 13.431 6.32116C13.43 6.34016 13.435 6.35896 13.445 6.37516C13.455 6.39146 13.4709 6.40446 13.4889 6.41256C13.4619 6.42756 13.4409 6.44916 13.4259 6.47486C13.4119 6.50066 13.4049 6.52976 13.4069 6.55886C13.4049 6.58686 13.4099 6.61486 13.4219 6.64036C13.4339 6.66596 13.4529 6.68816 13.4769 6.70516C13.6379 6.76616 13.8169 6.76616 13.9779 6.70516C14.0029 6.68546 14.023 6.66006 14.035 6.63136C14.047 6.60256 14.052 6.57136 14.048 6.54056C14.051 6.51246 14.0469 6.48406 14.0339 6.45826C14.0219 6.43246 14.0019 6.41036 13.9779 6.39426C13.9029 6.35956 13.82 6.34456 13.737 6.35086C13.686 6.35636 13.634 6.35636 13.583 6.35086C13.556 6.35086 13.544 6.33026 13.544 6.31206C13.543 6.30186 13.547 6.29176 13.553 6.28366C13.56 6.27566 13.5699 6.27026 13.5799 6.26856C13.6319 6.26276 13.685 6.26276 13.737 6.26856C13.817 6.27366 13.8969 6.25266 13.9629 6.20916C13.9889 6.18616 14.009 6.15796 14.022 6.12676C14.035 6.09556 14.0399 6.06206 14.0379 6.02856V6.00346C14.0399 5.97496 14.0349 5.94646 14.0239 5.91996C14.0119 5.89356 13.9949 5.86976 13.9729 5.85026L14.0409 5.78626C14.0499 5.77956 14.056 5.76976 14.057 5.75886C14.057 5.75376 14.055 5.74896 14.052 5.74456C14.049 5.74026 14.0449 5.73656 14.0409 5.73376C14.0159 5.71086 14.0069 5.71316 13.9799 5.73376L13.8959 5.80456C13.8439 5.78256 13.7869 5.77236 13.7299 5.77486V5.76576ZM13.7299 6.68006C13.5629 6.68006 13.5149 6.65256 13.5149 6.56346C13.5129 6.53986 13.518 6.51606 13.53 6.49546C13.543 6.47496 13.5619 6.45876 13.5849 6.44916C13.6329 6.45206 13.6819 6.45206 13.7299 6.44916C13.8859 6.44916 13.9419 6.46516 13.9419 6.55426C13.9419 6.64346 13.8689 6.68916 13.7299 6.68916V6.68006ZM13.5849 6.45146C13.5629 6.46146 13.5449 6.47756 13.5329 6.49756C13.5209 6.51756 13.516 6.54056 13.518 6.56346C13.518 6.65026 13.5659 6.67776 13.7299 6.67776C13.8939 6.67776 13.9369 6.65026 13.9369 6.56116C13.9369 6.47206 13.8859 6.45826 13.7299 6.45826C13.6819 6.46196 13.6329 6.46276 13.5849 6.46056V6.45146ZM13.7299 6.17486C13.5899 6.17486 13.5319 6.13146 13.5319 6.02406V6.00346C13.5319 5.90286 13.5969 5.85486 13.7299 5.85486C13.8619 5.85486 13.9219 5.90516 13.9219 6.00346V6.02176C13.9149 6.12916 13.8669 6.17256 13.7299 6.17256V6.17486ZM13.7299 5.85946C13.5969 5.85946 13.5339 5.90746 13.5339 6.00576V6.02406C13.5339 6.12916 13.5899 6.17256 13.7299 6.17256C13.8689 6.17256 13.9199 6.12916 13.9199 6.02406V6.00346C13.9149 5.90746 13.8549 5.85716 13.7299 5.85716V5.85946Z" fill="#009EDB"/>
<path d="M14.3249 5.56225C14.3249 5.57115 14.3239 5.58005 14.3199 5.58835C14.3169 5.59665 14.3119 5.60415 14.3049 5.61055C14.2989 5.61695 14.2909 5.62205 14.2819 5.62555C14.2739 5.62905 14.2639 5.63085 14.2549 5.63085C14.2449 5.63115 14.2359 5.62955 14.2269 5.62625C14.2179 5.62295 14.2089 5.61795 14.2019 5.61155C14.1949 5.60515 14.1899 5.59745 14.1859 5.58905C14.1819 5.58055 14.1799 5.57145 14.1799 5.56225C14.1809 5.54385 14.1889 5.52645 14.2029 5.51365C14.2169 5.50085 14.2359 5.49365 14.2549 5.49365C14.2739 5.49425 14.2919 5.50175 14.3049 5.51455C14.3179 5.52735 14.3249 5.54445 14.3249 5.56225ZM14.1999 5.82055C14.1999 5.78625 14.1999 5.77715 14.2449 5.77715H14.2619C14.2979 5.77715 14.3079 5.77715 14.3079 5.82055V6.41935C14.3079 6.45595 14.3079 6.46285 14.2619 6.46285H14.2449C14.2039 6.46285 14.1999 6.46285 14.1999 6.41935V5.82055Z" fill="#009EDB"/>
<path d="M14.262 6.46066H14.245C14.204 6.46066 14.197 6.46066 14.197 6.41496V5.82066C14.197 5.78636 14.197 5.77496 14.245 5.77496H14.262C14.298 5.77496 14.31 5.77496 14.31 5.82066V6.41956C14.31 6.46066 14.298 6.46066 14.262 6.46066ZM14.245 5.77496C14.207 5.77496 14.199 5.77496 14.199 5.81606V6.41496C14.199 6.45156 14.199 6.45606 14.245 6.45606H14.262C14.296 6.45606 14.305 6.45606 14.305 6.41496V5.82066C14.305 5.78866 14.305 5.77956 14.262 5.77956L14.245 5.77496ZM14.245 5.62636C14.226 5.62636 14.208 5.61916 14.194 5.60636C14.181 5.59346 14.173 5.57606 14.173 5.55786C14.173 5.53966 14.181 5.52216 14.194 5.50936C14.208 5.49646 14.226 5.48926 14.245 5.48926C14.264 5.48926 14.283 5.49646 14.296 5.50936C14.31 5.52216 14.318 5.53966 14.318 5.55786C14.318 5.57606 14.31 5.59346 14.296 5.60636C14.283 5.61916 14.264 5.62636 14.245 5.62636ZM14.245 5.49156C14.236 5.49156 14.227 5.49326 14.219 5.49656C14.21 5.49996 14.202 5.50476 14.196 5.51096C14.189 5.51716 14.184 5.52436 14.181 5.53246C14.177 5.54046 14.175 5.54916 14.175 5.55786C14.175 5.56656 14.177 5.57516 14.181 5.58316C14.184 5.59126 14.189 5.59856 14.196 5.60466C14.202 5.61086 14.21 5.61576 14.219 5.61906C14.227 5.62236 14.236 5.62406 14.245 5.62406C14.264 5.62406 14.282 5.61716 14.295 5.60466C14.308 5.59226 14.315 5.57536 14.315 5.55786C14.315 5.54026 14.308 5.52336 14.295 5.51096C14.282 5.49856 14.264 5.49156 14.245 5.49156Z" fill="#009EDB"/>
<path d="M15.0479 6.25717C15.0479 6.41257 14.9539 6.48577 14.7419 6.48577C14.5729 6.48577 14.4669 6.42177 14.4669 6.27777C14.4669 6.13377 14.5659 6.07427 14.7659 6.07427H14.9389V5.98057C14.9389 5.88687 14.8689 5.85487 14.7459 5.85487C14.6919 5.85457 14.6379 5.85987 14.5849 5.87087C14.5489 5.87087 14.5369 5.87087 14.5369 5.83657V5.82517C14.5369 5.79317 14.5369 5.78397 14.5829 5.77717C14.6349 5.76767 14.6879 5.76307 14.7419 5.76347C14.9459 5.76347 15.0479 5.83657 15.0479 5.98057V6.25717ZM14.9389 6.14747H14.7659C14.6359 6.14747 14.5749 6.18177 14.5749 6.26857C14.5749 6.35547 14.6309 6.38747 14.7419 6.38747C14.8519 6.38747 14.9389 6.35777 14.9389 6.25257V6.14747ZM14.7659 5.69027C14.7389 5.69027 14.7369 5.69027 14.7319 5.66287C14.7269 5.63547 14.7539 5.60797 14.7969 5.56457C14.8069 5.55647 14.8139 5.54507 14.8159 5.53257C14.8159 5.50747 14.8159 5.49597 14.7899 5.49597C14.7679 5.49117 14.7459 5.49117 14.7249 5.49597C14.7079 5.49597 14.6959 5.49597 14.6859 5.48227V5.47087C14.6859 5.45027 14.6859 5.44117 14.7079 5.43427C14.7349 5.42307 14.7649 5.41757 14.7949 5.41827C14.8089 5.41717 14.8229 5.41907 14.8369 5.42387C14.8499 5.42877 14.8619 5.43637 14.8719 5.44627C14.8819 5.45607 14.8899 5.46797 14.8939 5.48097C14.8989 5.49387 14.8999 5.50767 14.8979 5.52117C14.8979 5.58057 14.8109 5.60577 14.8089 5.65147C14.8079 5.65837 14.8049 5.66487 14.7999 5.66977C14.7939 5.67477 14.7869 5.67797 14.7799 5.67887L14.7659 5.69027Z" fill="#009EDB"/>
<path d="M14.742 6.47878C14.561 6.47878 14.464 6.40568 14.464 6.26858C14.464 6.13138 14.556 6.06278 14.766 6.06278H14.937V5.98058C14.937 5.89368 14.879 5.85708 14.746 5.85708C14.692 5.85638 14.638 5.86098 14.585 5.87078C14.566 5.87078 14.554 5.87078 14.546 5.87078C14.539 5.87078 14.546 5.85478 14.546 5.83878V5.82738C14.546 5.79538 14.546 5.78628 14.592 5.77708C14.645 5.76738 14.698 5.76278 14.751 5.76338C14.956 5.76338 15.06 5.83878 15.06 5.99198V6.26858C15.05 6.41028 14.954 6.47878 14.742 6.47878ZM14.766 6.06738C14.558 6.06738 14.467 6.12908 14.467 6.26858C14.467 6.40798 14.561 6.47428 14.742 6.47428C14.826 6.48268 14.91 6.46498 14.983 6.42398C15.009 6.40428 15.029 6.37868 15.042 6.34958C15.055 6.32038 15.061 6.28868 15.057 6.25708V5.98058C15.059 5.94958 15.053 5.91868 15.04 5.89038C15.026 5.86218 15.006 5.83738 14.98 5.81828C14.911 5.77908 14.831 5.76068 14.751 5.76568C14.698 5.76508 14.645 5.76968 14.592 5.77938C14.556 5.77938 14.549 5.79308 14.549 5.82508V5.83658C14.549 5.85258 14.549 5.86168 14.549 5.86628C14.549 5.87078 14.566 5.86628 14.585 5.86628C14.638 5.85548 14.692 5.85008 14.746 5.85028C14.881 5.85028 14.939 5.88908 14.939 5.97828V6.06508L14.766 6.06738ZM14.742 6.38738C14.628 6.38738 14.575 6.34858 14.575 6.26858C14.575 6.18858 14.633 6.14508 14.766 6.14508H14.939V6.25258C14.939 6.36458 14.865 6.38738 14.742 6.38738ZM14.766 6.15878C14.633 6.15878 14.578 6.19308 14.578 6.27768C14.578 6.36228 14.631 6.39428 14.742 6.39428C14.852 6.39428 14.937 6.35768 14.937 6.26168V6.15878H14.766ZM14.766 5.70168C14.737 5.70168 14.734 5.70168 14.73 5.67428C14.725 5.64678 14.744 5.62398 14.775 5.59198L14.797 5.57138C14.802 5.56778 14.806 5.56328 14.809 5.55818C14.812 5.55308 14.813 5.54748 14.814 5.54168C14.814 5.51658 14.814 5.50738 14.79 5.50508C14.77 5.50568 14.752 5.51028 14.734 5.51878C14.715 5.51878 14.703 5.51878 14.691 5.50278V5.49138C14.691 5.46858 14.691 5.46168 14.713 5.45478C14.74 5.44358 14.77 5.43808 14.799 5.43878C14.828 5.43808 14.855 5.44698 14.877 5.46398C14.886 5.47448 14.894 5.48688 14.898 5.50018C14.903 5.51358 14.904 5.52768 14.903 5.54168C14.901 5.55698 14.895 5.57178 14.887 5.58518C14.879 5.59848 14.868 5.61008 14.855 5.61938C14.835 5.63148 14.82 5.65028 14.814 5.67198C14.813 5.67908 14.81 5.68578 14.805 5.69078C14.799 5.69578 14.792 5.69888 14.785 5.69938L14.766 5.70168ZM14.783 5.50278C14.797 5.50278 14.811 5.50278 14.811 5.54168C14.809 5.55418 14.802 5.56558 14.792 5.57368L14.771 5.59428C14.739 5.62398 14.722 5.63998 14.725 5.67198C14.727 5.70398 14.725 5.69708 14.758 5.69708C14.765 5.69618 14.771 5.69328 14.776 5.68868C14.781 5.68418 14.784 5.67828 14.785 5.67198C14.791 5.64958 14.806 5.63008 14.826 5.61708C14.839 5.60948 14.851 5.59918 14.86 5.58698C14.869 5.57478 14.876 5.56088 14.879 5.54628C14.88 5.53268 14.878 5.51888 14.874 5.50598C14.869 5.49298 14.862 5.48108 14.852 5.47078C14.832 5.45338 14.805 5.44438 14.778 5.44568C14.748 5.44498 14.718 5.45038 14.691 5.46168C14.674 5.46168 14.664 5.47538 14.672 5.49598C14.672 5.51658 14.693 5.51658 14.71 5.51198C14.733 5.50238 14.758 5.49918 14.783 5.50278Z" fill="#009EDB"/>
<path d="M15.3159 6.41943C15.3159 6.45593 15.316 6.46283 15.267 6.46283H15.25C15.214 6.46283 15.205 6.46283 15.205 6.41943V6.02393C15.205 5.85023 15.308 5.76343 15.511 5.76343C15.713 5.76343 15.817 5.85483 15.817 6.02393V6.41943C15.817 6.45593 15.817 6.46283 15.769 6.46283H15.752C15.711 6.46283 15.7039 6.46283 15.7039 6.41943V6.02393C15.7039 5.91193 15.66 5.86173 15.511 5.86173C15.361 5.86173 15.3159 5.91423 15.3159 6.02393V6.41943Z" fill="#009EDB"/>
<path d="M15.768 6.46056H15.752C15.711 6.46056 15.703 6.46056 15.703 6.41486V6.02406C15.703 5.90746 15.65 5.86406 15.511 5.86406C15.371 5.86406 15.315 5.90746 15.315 6.02406V6.41946C15.315 6.45606 15.315 6.46516 15.267 6.46516H15.25C15.214 6.46516 15.202 6.46516 15.202 6.41946V6.02406C15.202 5.85026 15.306 5.76116 15.511 5.76116C15.554 5.75696 15.597 5.76086 15.638 5.77266C15.68 5.78436 15.718 5.80376 15.752 5.82976C15.778 5.85526 15.798 5.88586 15.81 5.91936C15.823 5.95296 15.827 5.98856 15.824 6.02406V6.41946C15.817 6.46056 15.809 6.46056 15.768 6.46056ZM15.511 5.85486C15.653 5.85486 15.706 5.90056 15.706 6.01946V6.41486C15.706 6.45146 15.706 6.45606 15.752 6.45606H15.768C15.807 6.45606 15.814 6.45606 15.814 6.41486V6.02406C15.817 5.98916 15.813 5.95416 15.8 5.92106C15.788 5.88806 15.769 5.85776 15.744 5.83206C15.711 5.80646 15.672 5.78746 15.631 5.77616C15.59 5.76476 15.546 5.76126 15.503 5.76576C15.417 5.75646 15.331 5.77946 15.262 5.82976C15.236 5.85496 15.215 5.88536 15.202 5.91886C15.188 5.95246 15.183 5.98826 15.185 6.02406V6.41946C15.185 6.45606 15.197 6.46056 15.231 6.46056H15.248C15.287 6.46056 15.294 6.46056 15.294 6.41946V6.02406C15.313 5.90516 15.361 5.85946 15.511 5.85946V5.85486Z" fill="#009EDB"/>
<path d="M16.3929 5.54643C16.3929 5.50753 16.3929 5.50073 16.4409 5.50073H16.4579C16.4959 5.50073 16.5039 5.50073 16.5039 5.54643V5.86873C16.5309 5.83413 16.5679 5.80733 16.6109 5.79083C16.6529 5.77433 16.6989 5.76893 16.7449 5.77493C16.9229 5.77493 17.0139 5.85493 17.0139 6.01953V6.43093C17.0139 6.46753 17.0139 6.47443 16.9689 6.47443H16.9489C16.9109 6.47443 16.9039 6.47443 16.9039 6.43093V6.01953C16.9039 5.90983 16.8509 5.86183 16.7159 5.86183C16.5809 5.86183 16.5129 5.91443 16.5129 6.04243V6.41953C16.5129 6.45613 16.5129 6.46293 16.4669 6.46293H16.4509C16.4119 6.46293 16.4019 6.46293 16.4019 6.41953L16.3929 5.54643Z" fill="#009EDB"/>
<path d="M16.9589 6.46059H16.9399C16.9009 6.46059 16.8919 6.46059 16.8919 6.41489V6.01949C16.8919 5.90749 16.8389 5.86399 16.7059 5.86399C16.5729 5.86399 16.5059 5.91659 16.5059 6.04229V6.41949C16.5059 6.45599 16.5059 6.46519 16.4579 6.46519H16.4409C16.4049 6.46519 16.3929 6.46519 16.3929 6.41949V5.54629C16.3929 5.50519 16.3929 5.49829 16.4409 5.49829H16.4579C16.4959 5.49829 16.5059 5.49829 16.5059 5.54629V5.86399C16.5339 5.83009 16.5709 5.80389 16.6139 5.78779C16.6559 5.77179 16.7019 5.76649 16.7469 5.77259C16.9279 5.77259 17.0189 5.85489 17.0189 6.01949V6.43089C17.0069 6.46059 16.9979 6.46059 16.9589 6.46059ZM16.7179 5.85489C16.8529 5.85489 16.9079 5.90289 16.9079 6.01489V6.41489C16.9079 6.45149 16.9079 6.45599 16.9519 6.45599H16.9709C17.0099 6.45599 17.0139 6.45599 17.0139 6.41489V6.00349C17.0139 5.84119 16.9249 5.76119 16.7469 5.76119C16.7019 5.75509 16.6549 5.76059 16.6129 5.77709C16.5709 5.79349 16.5339 5.82039 16.5059 5.85489V5.54629C16.5059 5.50979 16.5059 5.50289 16.4629 5.50289H16.4459C16.4099 5.50289 16.3999 5.50289 16.3999 5.54629V6.43089C16.3999 6.46749 16.3999 6.47199 16.4459 6.47199H16.4629C16.4989 6.47199 16.5059 6.47199 16.5059 6.43089V6.04229C16.5009 5.91429 16.5659 5.85949 16.7059 5.85949L16.7179 5.85489Z" fill="#009EDB"/>
<path d="M17.1609 6.18396V6.05596C17.1609 5.86166 17.267 5.76336 17.484 5.76336C17.544 5.75496 17.605 5.76516 17.659 5.79226C17.712 5.81946 17.755 5.86226 17.781 5.91426C17.802 5.91426 17.824 5.87766 17.824 5.80456C17.824 5.78396 17.824 5.77706 17.858 5.77706H17.882C17.908 5.77706 17.913 5.77706 17.913 5.80456C17.913 5.91656 17.865 5.97136 17.797 5.98966C17.8 6.01166 17.8 6.03396 17.797 6.05596V6.18396C17.797 6.38056 17.691 6.47656 17.479 6.47656C17.267 6.47656 17.1609 6.37596 17.1609 6.18396ZM17.694 6.05596C17.694 5.92106 17.643 5.86166 17.484 5.86166C17.325 5.86166 17.27 5.92106 17.27 6.05596V6.18396C17.27 6.31886 17.323 6.37826 17.484 6.37826C17.646 6.37826 17.694 6.31886 17.694 6.18396V6.05596Z" fill="#009EDB"/>
<path d="M17.4839 6.47895C17.2629 6.47895 17.1589 6.38525 17.1589 6.18415V6.05615C17.1549 6.01475 17.1609 5.97305 17.1749 5.93365C17.1889 5.89435 17.2109 5.85815 17.2409 5.82755C17.3089 5.77485 17.3949 5.74865 17.4819 5.75445C17.6409 5.75445 17.7349 5.80245 17.7779 5.90525C17.8069 5.89385 17.8189 5.85725 17.8189 5.79785C17.8189 5.77495 17.8189 5.76815 17.8559 5.76815H17.8799C17.9059 5.76815 17.9129 5.76815 17.9129 5.79785C17.9129 5.89845 17.8749 5.96245 17.7979 5.98525C17.7989 6.00655 17.7989 6.02795 17.7979 6.04925V6.17725C17.8039 6.21785 17.7999 6.25935 17.7869 6.29835C17.7729 6.33735 17.7509 6.37295 17.7199 6.40215C17.6899 6.43145 17.6529 6.45365 17.6119 6.46695C17.5709 6.48025 17.5269 6.48435 17.4839 6.47895ZM17.4839 5.76585C17.3969 5.75875 17.3109 5.78415 17.2429 5.83665C17.2139 5.86715 17.1909 5.90335 17.1769 5.94275C17.1639 5.98225 17.1589 6.02395 17.1639 6.06525V6.19325C17.1639 6.39215 17.2649 6.48355 17.4839 6.48355C17.5709 6.49035 17.6579 6.46495 17.7249 6.41265C17.7549 6.38215 17.7779 6.34605 17.7909 6.30655C17.8049 6.26715 17.8099 6.22535 17.8049 6.18415V6.05615C17.8059 6.03405 17.8059 6.01195 17.8049 5.98985C17.8819 5.96695 17.9179 5.90525 17.9179 5.80465C17.9179 5.78415 17.9179 5.77955 17.8889 5.77955H17.8649C17.8409 5.77955 17.8339 5.77955 17.8339 5.80465C17.8339 5.86645 17.8189 5.90295 17.7879 5.91665C17.7349 5.81385 17.6429 5.77495 17.4839 5.77495V5.76585ZM17.4839 6.38065C17.3299 6.38065 17.2699 6.32585 17.2699 6.18415V6.05615C17.2699 5.91445 17.3279 5.85955 17.4839 5.85955C17.6409 5.85955 17.6939 5.91445 17.6939 6.05615V6.18415C17.6939 6.32815 17.6389 6.38065 17.4839 6.38065ZM17.4839 5.86415C17.3299 5.86415 17.2719 5.91445 17.2719 6.05615V6.18415C17.2719 6.32355 17.3329 6.37615 17.4839 6.37615C17.6359 6.37615 17.6919 6.32585 17.6919 6.18415V6.05615C17.6919 5.91445 17.6359 5.86415 17.4839 5.86415Z" fill="#009EDB"/>
<path d="M18.0699 6.41943C18.0699 6.45593 18.0699 6.46283 18.0219 6.46283H18.0119C17.9759 6.46283 17.9659 6.46283 17.9659 6.41943V6.02393C17.9659 5.85023 18.0679 5.76343 18.2719 5.76343C18.4769 5.76343 18.5779 5.85483 18.5779 6.02393V6.41943C18.5779 6.45593 18.5779 6.46283 18.5299 6.46283H18.5129C18.4719 6.46283 18.4649 6.46283 18.4649 6.41943V6.02393C18.4649 5.91193 18.4219 5.86173 18.2719 5.86173C18.1229 5.86173 18.0769 5.91423 18.0769 6.02393L18.0699 6.41943Z" fill="#009EDB"/>
<path d="M18.5229 6.46056H18.5059C18.4649 6.46056 18.458 6.46056 18.458 6.41486V6.02406C18.458 5.90746 18.405 5.86406 18.265 5.86406C18.125 5.86406 18.07 5.90746 18.07 6.02406V6.41946C18.07 6.45606 18.07 6.46516 18.022 6.46516H18.012C17.976 6.46516 17.964 6.46516 17.964 6.41946V6.02406C17.964 5.85026 18.068 5.76116 18.272 5.76116C18.315 5.75696 18.359 5.76086 18.4 5.77266C18.441 5.78436 18.48 5.80376 18.513 5.82976C18.539 5.85526 18.559 5.88586 18.572 5.91936C18.584 5.95296 18.589 5.98856 18.586 6.02406V6.41946C18.571 6.46056 18.5639 6.46056 18.5229 6.46056ZM18.265 5.85486C18.407 5.85486 18.46 5.90056 18.46 6.01946V6.41486C18.46 6.45146 18.4599 6.45606 18.5059 6.45606H18.5229C18.5619 6.45606 18.569 6.45606 18.569 6.41486V6.02406C18.572 5.98916 18.567 5.95416 18.555 5.92106C18.543 5.88806 18.524 5.85776 18.499 5.83206C18.465 5.80646 18.4269 5.78746 18.3849 5.77616C18.3439 5.76476 18.301 5.76126 18.258 5.76576C18.172 5.75646 18.085 5.77946 18.017 5.82976C17.99 5.85496 17.969 5.88536 17.956 5.91886C17.943 5.95246 17.937 5.98826 17.94 6.02406V6.41946C17.94 6.45606 17.952 6.46056 17.986 6.46056H18.012C18.051 6.46056 18.058 6.46056 18.058 6.41946V6.02406C18.068 5.90516 18.123 5.85946 18.265 5.85946V5.85486Z" fill="#009EDB"/>
</svg>
