<svg width="24" height="25" viewBox="0 0 24 25" fill="none" xmlns="http://www.w3.org/2000/svg">
<path d="M23.0194 7.23209C22.7549 6.24861 21.9756 5.47416 20.9859 5.21132C19.1923 4.73364 12 4.73364 12 4.73364C12 4.73364 4.8077 4.73364 3.01404 5.21132C2.02448 5.47416 1.24509 6.24861 0.980612 7.23209C0.5 9.01458 0.5 12.7336 0.5 12.7336C0.5 12.7336 0.5 16.4526 0.980612 18.2353C1.24509 19.2187 2.02448 19.9931 3.01404 20.2561C4.8077 20.7336 12 20.7336 12 20.7336C12 20.7336 19.1923 20.7336 20.9859 20.2561C21.9756 19.9931 22.7549 19.2187 23.0194 18.2353C23.5 16.4526 23.5 12.7336 23.5 12.7336C23.5 12.7336 23.5 9.01458 23.0194 7.23209Z" fill="#ED1D24"/>
<path d="M9.64774 16.1106L15.6591 12.7341L9.64774 9.35737V16.1106Z" fill="white"/>
</svg>
