<svg width="100" height="100" viewBox="0 0 100 100" fill="none" xmlns="http://www.w3.org/2000/svg">
<g clip-path="url(#clip0_161_1415)">
<path d="M5.00008 28.333H1.66675V31.6663H5.00008V28.333Z" fill="#292727"/>
<path d="M5.00008 38.333H1.66675V41.6663H5.00008V38.333Z" fill="#292727"/>
<path d="M5.00008 45H1.66675V48.3333H5.00008V45Z" fill="#292727"/>
<path d="M5.00008 48.333H1.66675V51.6663H5.00008V48.333Z" fill="#292727"/>
<path d="M5.00008 51.6665H1.66675V54.9998H5.00008V51.6665Z" fill="#292727"/>
<path d="M5.00008 58.333H1.66675V61.6663H5.00008V58.333Z" fill="#292727"/>
<path d="M5.00008 61.6665H1.66675V64.9998H5.00008V61.6665Z" fill="#292727"/>
<path d="M5.00008 65H1.66675V68.3333H5.00008V65Z" fill="#292727"/>
<path d="M8.33333 28.333H5V31.6663H8.33333V28.333Z" fill="#292727"/>
<path d="M8.33333 31.6665H5V34.9998H8.33333V31.6665Z" fill="#292727"/>
<path d="M8.33333 35H5V38.3333H8.33333V35Z" fill="#292727"/>
<path d="M8.33333 38.333H5V41.6663H8.33333V38.333Z" fill="#292727"/>
<path d="M8.33333 45H5V48.3333H8.33333V45Z" fill="#292727"/>
<path d="M8.33333 48.333H5V51.6663H8.33333V48.333Z" fill="#292727"/>
<path d="M8.33333 51.6665H5V54.9998H8.33333V51.6665Z" fill="#292727"/>
<path d="M8.33333 58.333H5V61.6663H8.33333V58.333Z" fill="#292727"/>
<path d="M8.33333 65H5V68.3333H8.33333V65Z" fill="#292727"/>
<path d="M11.6668 28.333H8.3335V31.6663H11.6668V28.333Z" fill="#292727"/>
<path d="M11.6668 31.6665H8.3335V34.9998H11.6668V31.6665Z" fill="#292727"/>
<path d="M11.6668 38.333H8.3335V41.6663H11.6668V38.333Z" fill="#292727"/>
<path d="M11.6668 41.6665H8.3335V44.9998H11.6668V41.6665Z" fill="#292727"/>
<path d="M11.6668 45H8.3335V48.3333H11.6668V45Z" fill="#292727"/>
<path d="M11.6668 48.333H8.3335V51.6663H11.6668V48.333Z" fill="#292727"/>
<path d="M15.0001 48.333H11.6667V51.6663H15.0001V48.333Z" fill="#292727"/>
<path d="M15.0001 51.6665H11.6667V54.9998H15.0001V51.6665Z" fill="#292727"/>
<path d="M18.3333 28.333H15V31.6663H18.3333V28.333Z" fill="#292727"/>
<path d="M18.3333 31.6665H15V34.9998H18.3333V31.6665Z" fill="#292727"/>
<path d="M18.3333 35H15V38.3333H18.3333V35Z" fill="#292727"/>
<path d="M18.3333 45H15V48.3333H18.3333V45Z" fill="#292727"/>
<path d="M18.3333 51.6665H15V54.9998H18.3333V51.6665Z" fill="#292727"/>
<path d="M18.3333 61.6665H15V64.9998H18.3333V61.6665Z" fill="#292727"/>
<path d="M18.3333 65H15V68.3333H18.3333V65Z" fill="#292727"/>
<path d="M21.6668 31.6665H18.3335V34.9998H21.6668V31.6665Z" fill="#292727"/>
<path d="M21.6668 38.333H18.3335V41.6663H21.6668V38.333Z" fill="#292727"/>
<path d="M21.6668 41.6665H18.3335V44.9998H21.6668V41.6665Z" fill="#292727"/>
<path d="M21.6668 45H18.3335V48.3333H21.6668V45Z" fill="#292727"/>
<path d="M21.6668 48.333H18.3335V51.6663H21.6668V48.333Z" fill="#292727"/>
<path d="M21.6668 58.333H18.3335V61.6663H21.6668V58.333Z" fill="#292727"/>
<path d="M21.6668 61.6665H18.3335V64.9998H21.6668V61.6665Z" fill="#292727"/>
<path d="M21.6668 68.333H18.3335V71.6663H21.6668V68.333Z" fill="#292727"/>
<path d="M25.0001 28.333H21.6667V31.6663H25.0001V28.333Z" fill="#292727"/>
<path d="M25.0001 35H21.6667V38.3333H25.0001V35Z" fill="#292727"/>
<path d="M25.0001 41.6665H21.6667V44.9998H25.0001V41.6665Z" fill="#292727"/>
<path d="M25.0001 48.333H21.6667V51.6663H25.0001V48.333Z" fill="#292727"/>
<path d="M25.0001 55H21.6667V58.3333H25.0001V55Z" fill="#292727"/>
<path d="M25.0001 61.6665H21.6667V64.9998H25.0001V61.6665Z" fill="#292727"/>
<path d="M25.0001 68.333H21.6667V71.6663H25.0001V68.333Z" fill="#292727"/>
<path d="M28.3333 31.6665H25V34.9998H28.3333V31.6665Z" fill="#292727"/>
<path d="M28.3333 35H25V38.3333H28.3333V35Z" fill="#292727"/>
<path d="M28.3333 41.6665H25V44.9998H28.3333V41.6665Z" fill="#292727"/>
<path d="M28.3333 48.333H25V51.6663H28.3333V48.333Z" fill="#292727"/>
<path d="M28.3333 61.6665H25V64.9998H28.3333V61.6665Z" fill="#292727"/>
<path d="M31.6668 1.6665H28.3335V4.99984H31.6668V1.6665Z" fill="#292727"/>
<path d="M31.6668 11.6665H28.3335V14.9998H31.6668V11.6665Z" fill="#292727"/>
<path d="M31.6668 15H28.3335V18.3333H31.6668V15Z" fill="#292727"/>
<path d="M31.6668 18.333H28.3335V21.6663H31.6668V18.333Z" fill="#292727"/>
<path d="M31.6668 21.6665H28.3335V24.9998H31.6668V21.6665Z" fill="#292727"/>
<path d="M31.6668 25H28.3335V28.3333H31.6668V25Z" fill="#292727"/>
<path d="M31.6668 28.333H28.3335V31.6663H31.6668V28.333Z" fill="#292727"/>
<path d="M31.6668 31.6665H28.3335V34.9998H31.6668V31.6665Z" fill="#292727"/>
<path d="M31.6668 41.6665H28.3335V44.9998H31.6668V41.6665Z" fill="#292727"/>
<path d="M31.6668 45H28.3335V48.3333H31.6668V45Z" fill="#292727"/>
<path d="M31.6668 48.333H28.3335V51.6663H31.6668V48.333Z" fill="#292727"/>
<path d="M31.6668 51.6665H28.3335V54.9998H31.6668V51.6665Z" fill="#292727"/>
<path d="M31.6668 55H28.3335V58.3333H31.6668V55Z" fill="#292727"/>
<path d="M31.6668 71.6665H28.3335V74.9998H31.6668V71.6665Z" fill="#292727"/>
<path d="M31.6668 81.6665H28.3335V84.9998H31.6668V81.6665Z" fill="#292727"/>
<path d="M31.6668 88.333H28.3335V91.6663H31.6668V88.333Z" fill="#292727"/>
<path d="M31.6668 91.6665H28.3335V94.9998H31.6668V91.6665Z" fill="#292727"/>
<path d="M31.6668 95H28.3335V98.3333H31.6668V95Z" fill="#292727"/>
<path d="M35.0001 1.6665H31.6667V4.99984H35.0001V1.6665Z" fill="#292727"/>
<path d="M35.0001 8.33301H31.6667V11.6663H35.0001V8.33301Z" fill="#292727"/>
<path d="M35.0001 25H31.6667V28.3333H35.0001V25Z" fill="#292727"/>
<path d="M35.0001 28.333H31.6667V31.6663H35.0001V28.333Z" fill="#292727"/>
<path d="M35.0001 31.6665H31.6667V34.9998H35.0001V31.6665Z" fill="#292727"/>
<path d="M35.0001 35H31.6667V38.3333H35.0001V35Z" fill="#292727"/>
<path d="M35.0001 38.333H31.6667V41.6663H35.0001V38.333Z" fill="#292727"/>
<path d="M35.0001 48.333H31.6667V51.6663H35.0001V48.333Z" fill="#292727"/>
<path d="M35.0001 58.333H31.6667V61.6663H35.0001V58.333Z" fill="#292727"/>
<path d="M35.0001 65H31.6667V68.3333H35.0001V65Z" fill="#292727"/>
<path d="M35.0001 68.333H31.6667V71.6663H35.0001V68.333Z" fill="#292727"/>
<path d="M35.0001 78.333H31.6667V81.6663H35.0001V78.333Z" fill="#292727"/>
<path d="M35.0001 81.6665H31.6667V84.9998H35.0001V81.6665Z" fill="#292727"/>
<path d="M35.0001 88.333H31.6667V91.6663H35.0001V88.333Z" fill="#292727"/>
<path d="M35.0001 91.6665H31.6667V94.9998H35.0001V91.6665Z" fill="#292727"/>
<path d="M38.3333 1.6665H35V4.99984H38.3333V1.6665Z" fill="#292727"/>
<path d="M38.3333 8.33301H35V11.6663H38.3333V8.33301Z" fill="#292727"/>
<path d="M38.3333 18.333H35V21.6663H38.3333V18.333Z" fill="#292727"/>
<path d="M38.3333 21.6665H35V24.9998H38.3333V21.6665Z" fill="#292727"/>
<path d="M38.3333 28.333H35V31.6663H38.3333V28.333Z" fill="#292727"/>
<path d="M38.3333 31.6665H35V34.9998H38.3333V31.6665Z" fill="#292727"/>
<path d="M38.3333 35H35V38.3333H38.3333V35Z" fill="#292727"/>
<path d="M38.3333 41.6665H35V44.9998H38.3333V41.6665Z" fill="#292727"/>
<path d="M38.3333 48.333H35V51.6663H38.3333V48.333Z" fill="#292727"/>
<path d="M38.3333 61.6665H35V64.9998H38.3333V61.6665Z" fill="#292727"/>
<path d="M38.3333 81.6665H35V84.9998H38.3333V81.6665Z" fill="#292727"/>
<path d="M38.3333 88.333H35V91.6663H38.3333V88.333Z" fill="#292727"/>
<path d="M41.6668 15H38.3335V18.3333H41.6668V15Z" fill="#292727"/>
<path d="M41.6668 25H38.3335V28.3333H41.6668V25Z" fill="#292727"/>
<path d="M41.6668 35H38.3335V38.3333H41.6668V35Z" fill="#292727"/>
<path d="M41.6668 48.333H38.3335V51.6663H41.6668V48.333Z" fill="#292727"/>
<path d="M41.6668 51.6665H38.3335V54.9998H41.6668V51.6665Z" fill="#292727"/>
<path d="M41.6668 58.333H38.3335V61.6663H41.6668V58.333Z" fill="#292727"/>
<path d="M41.6668 61.6665H38.3335V64.9998H41.6668V61.6665Z" fill="#292727"/>
<path d="M41.6668 68.333H38.3335V71.6663H41.6668V68.333Z" fill="#292727"/>
<path d="M41.6668 71.6665H38.3335V74.9998H41.6668V71.6665Z" fill="#292727"/>
<path d="M41.6668 75H38.3335V78.3333H41.6668V75Z" fill="#292727"/>
<path d="M41.6668 85H38.3335V88.3333H41.6668V85Z" fill="#292727"/>
<path d="M41.6668 95H38.3335V98.3333H41.6668V95Z" fill="#292727"/>
<path d="M45.0001 1.6665H41.6667V4.99984H45.0001V1.6665Z" fill="#292727"/>
<path d="M45.0001 5H41.6667V8.33333H45.0001V5Z" fill="#292727"/>
<path d="M45.0001 8.33301H41.6667V11.6663H45.0001V8.33301Z" fill="#292727"/>
<path d="M45.0001 15H41.6667V18.3333H45.0001V15Z" fill="#292727"/>
<path d="M45.0001 21.6665H41.6667V24.9998H45.0001V21.6665Z" fill="#292727"/>
<path d="M45.0001 35H41.6667V38.3333H45.0001V35Z" fill="#292727"/>
<path d="M45.0001 45H41.6667V48.3333H45.0001V45Z" fill="#292727"/>
<path d="M45.0001 48.333H41.6667V51.6663H45.0001V48.333Z" fill="#292727"/>
<path d="M45.0001 61.6665H41.6667V64.9998H45.0001V61.6665Z" fill="#292727"/>
<path d="M45.0001 68.333H41.6667V71.6663H45.0001V68.333Z" fill="#292727"/>
<path d="M45.0001 71.6665H41.6667V74.9998H45.0001V71.6665Z" fill="#292727"/>
<path d="M45.0001 75H41.6667V78.3333H45.0001V75Z" fill="#292727"/>
<path d="M45.0001 78.333H41.6667V81.6663H45.0001V78.333Z" fill="#292727"/>
<path d="M45.0001 95H41.6667V98.3333H45.0001V95Z" fill="#292727"/>
<path d="M48.3333 5H45V8.33333H48.3333V5Z" fill="#292727"/>
<path d="M48.3333 11.6665H45V14.9998H48.3333V11.6665Z" fill="#292727"/>
<path d="M48.3333 15H45V18.3333H48.3333V15Z" fill="#292727"/>
<path d="M48.3333 18.333H45V21.6663H48.3333V18.333Z" fill="#292727"/>
<path d="M48.3333 28.333H45V31.6663H48.3333V28.333Z" fill="#292727"/>
<path d="M48.3333 31.6665H45V34.9998H48.3333V31.6665Z" fill="#292727"/>
<path d="M48.3333 35H45V38.3333H48.3333V35Z" fill="#292727"/>
<path d="M48.3333 41.6665H45V44.9998H48.3333V41.6665Z" fill="#292727"/>
<path d="M48.3333 75H45V78.3333H48.3333V75Z" fill="#292727"/>
<path d="M48.3333 78.333H45V81.6663H48.3333V78.333Z" fill="#292727"/>
<path d="M48.3333 81.6665H45V84.9998H48.3333V81.6665Z" fill="#292727"/>
<path d="M48.3333 85H45V88.3333H48.3333V85Z" fill="#292727"/>
<path d="M48.3333 88.333H45V91.6663H48.3333V88.333Z" fill="#292727"/>
<path d="M48.3333 91.6665H45V94.9998H48.3333V91.6665Z" fill="#292727"/>
<path d="M48.3333 95H45V98.3333H48.3333V95Z" fill="#292727"/>
<path d="M51.6668 1.6665H48.3335V4.99984H51.6668V1.6665Z" fill="#292727"/>
<path d="M51.6668 5H48.3335V8.33333H51.6668V5Z" fill="#292727"/>
<path d="M51.6668 11.6665H48.3335V14.9998H51.6668V11.6665Z" fill="#292727"/>
<path d="M51.6668 15H48.3335V18.3333H51.6668V15Z" fill="#292727"/>
<path d="M51.6668 18.333H48.3335V21.6663H51.6668V18.333Z" fill="#292727"/>
<path d="M51.6668 21.6665H48.3335V24.9998H51.6668V21.6665Z" fill="#292727"/>
<path d="M51.6668 28.333H48.3335V31.6663H51.6668V28.333Z" fill="#292727"/>
<path d="M51.6668 38.333H48.3335V41.6663H51.6668V38.333Z" fill="#292727"/>
<path d="M51.6668 48.333H48.3335V51.6663H51.6668V48.333Z" fill="#292727"/>
<path d="M51.6668 51.6665H48.3335V54.9998H51.6668V51.6665Z" fill="#292727"/>
<path d="M51.6668 61.6665H48.3335V64.9998H51.6668V61.6665Z" fill="#292727"/>
<path d="M51.6668 65H48.3335V68.3333H51.6668V65Z" fill="#292727"/>
<path d="M51.6668 68.333H48.3335V71.6663H51.6668V68.333Z" fill="#292727"/>
<path d="M51.6668 88.333H48.3335V91.6663H51.6668V88.333Z" fill="#292727"/>
<path d="M51.6668 95H48.3335V98.3333H51.6668V95Z" fill="#292727"/>
<path d="M55.0001 8.33301H51.6667V11.6663H55.0001V8.33301Z" fill="#292727"/>
<path d="M55.0001 25H51.6667V28.3333H55.0001V25Z" fill="#292727"/>
<path d="M55.0001 28.333H51.6667V31.6663H55.0001V28.333Z" fill="#292727"/>
<path d="M55.0001 31.6665H51.6667V34.9998H55.0001V31.6665Z" fill="#292727"/>
<path d="M55.0001 35H51.6667V38.3333H55.0001V35Z" fill="#292727"/>
<path d="M55.0001 45H51.6667V48.3333H55.0001V45Z" fill="#292727"/>
<path d="M55.0001 48.333H51.6667V51.6663H55.0001V48.333Z" fill="#292727"/>
<path d="M55.0001 55H51.6667V58.3333H55.0001V55Z" fill="#292727"/>
<path d="M55.0001 61.6665H51.6667V64.9998H55.0001V61.6665Z" fill="#292727"/>
<path d="M55.0001 65H51.6667V68.3333H55.0001V65Z" fill="#292727"/>
<path d="M55.0001 71.6665H51.6667V74.9998H55.0001V71.6665Z" fill="#292727"/>
<path d="M55.0001 75H51.6667V78.3333H55.0001V75Z" fill="#292727"/>
<path d="M55.0001 78.333H51.6667V81.6663H55.0001V78.333Z" fill="#292727"/>
<path d="M55.0001 88.333H51.6667V91.6663H55.0001V88.333Z" fill="#292727"/>
<path d="M55.0001 95H51.6667V98.3333H55.0001V95Z" fill="#292727"/>
<path d="M58.3333 1.6665H55V4.99984H58.3333V1.6665Z" fill="#292727"/>
<path d="M58.3333 5H55V8.33333H58.3333V5Z" fill="#292727"/>
<path d="M58.3333 8.33301H55V11.6663H58.3333V8.33301Z" fill="#292727"/>
<path d="M58.3333 11.6665H55V14.9998H58.3333V11.6665Z" fill="#292727"/>
<path d="M58.3333 15H55V18.3333H58.3333V15Z" fill="#292727"/>
<path d="M58.3333 18.333H55V21.6663H58.3333V18.333Z" fill="#292727"/>
<path d="M58.3333 21.6665H55V24.9998H58.3333V21.6665Z" fill="#292727"/>
<path d="M58.3333 31.6665H55V34.9998H58.3333V31.6665Z" fill="#292727"/>
<path d="M58.3333 38.333H55V41.6663H58.3333V38.333Z" fill="#292727"/>
<path d="M58.3333 51.6665H55V54.9998H58.3333V51.6665Z" fill="#292727"/>
<path d="M58.3333 58.333H55V61.6663H58.3333V58.333Z" fill="#292727"/>
<path d="M58.3333 65H55V68.3333H58.3333V65Z" fill="#292727"/>
<path d="M58.3333 68.333H55V71.6663H58.3333V68.333Z" fill="#292727"/>
<path d="M58.3333 78.333H55V81.6663H58.3333V78.333Z" fill="#292727"/>
<path d="M58.3333 85H55V88.3333H58.3333V85Z" fill="#292727"/>
<path d="M61.6668 1.6665H58.3335V4.99984H61.6668V1.6665Z" fill="#292727"/>
<path d="M61.6668 5H58.3335V8.33333H61.6668V5Z" fill="#292727"/>
<path d="M61.6668 8.33301H58.3335V11.6663H61.6668V8.33301Z" fill="#292727"/>
<path d="M61.6668 15H58.3335V18.3333H61.6668V15Z" fill="#292727"/>
<path d="M61.6668 25H58.3335V28.3333H61.6668V25Z" fill="#292727"/>
<path d="M61.6668 28.333H58.3335V31.6663H61.6668V28.333Z" fill="#292727"/>
<path d="M61.6668 35H58.3335V38.3333H61.6668V35Z" fill="#292727"/>
<path d="M61.6668 41.6665H58.3335V44.9998H61.6668V41.6665Z" fill="#292727"/>
<path d="M61.6668 58.333H58.3335V61.6663H61.6668V58.333Z" fill="#292727"/>
<path d="M61.6668 65H58.3335V68.3333H61.6668V65Z" fill="#292727"/>
<path d="M61.6668 68.333H58.3335V71.6663H61.6668V68.333Z" fill="#292727"/>
<path d="M61.6668 71.6665H58.3335V74.9998H61.6668V71.6665Z" fill="#292727"/>
<path d="M61.6668 78.333H58.3335V81.6663H61.6668V78.333Z" fill="#292727"/>
<path d="M61.6668 81.6665H58.3335V84.9998H61.6668V81.6665Z" fill="#292727"/>
<path d="M61.6668 88.333H58.3335V91.6663H61.6668V88.333Z" fill="#292727"/>
<path d="M61.6668 91.6665H58.3335V94.9998H61.6668V91.6665Z" fill="#292727"/>
<path d="M65.0001 1.6665H61.6667V4.99984H65.0001V1.6665Z" fill="#292727"/>
<path d="M65.0001 5H61.6667V8.33333H65.0001V5Z" fill="#292727"/>
<path d="M65.0001 21.6665H61.6667V24.9998H65.0001V21.6665Z" fill="#292727"/>
<path d="M65.0001 28.333H61.6667V31.6663H65.0001V28.333Z" fill="#292727"/>
<path d="M65.0001 31.6665H61.6667V34.9998H65.0001V31.6665Z" fill="#292727"/>
<path d="M65.0001 38.333H61.6667V41.6663H65.0001V38.333Z" fill="#292727"/>
<path d="M65.0001 45H61.6667V48.3333H65.0001V45Z" fill="#292727"/>
<path d="M65.0001 48.333H61.6667V51.6663H65.0001V48.333Z" fill="#292727"/>
<path d="M65.0001 55H61.6667V58.3333H65.0001V55Z" fill="#292727"/>
<path d="M65.0001 65H61.6667V68.3333H65.0001V65Z" fill="#292727"/>
<path d="M65.0001 71.6665H61.6667V74.9998H65.0001V71.6665Z" fill="#292727"/>
<path d="M65.0001 75H61.6667V78.3333H65.0001V75Z" fill="#292727"/>
<path d="M65.0001 78.333H61.6667V81.6663H65.0001V78.333Z" fill="#292727"/>
<path d="M65.0001 85H61.6667V88.3333H65.0001V85Z" fill="#292727"/>
<path d="M65.0001 95H61.6667V98.3333H65.0001V95Z" fill="#292727"/>
<path d="M68.3333 1.6665H65V4.99984H68.3333V1.6665Z" fill="#292727"/>
<path d="M68.3333 5H65V8.33333H68.3333V5Z" fill="#292727"/>
<path d="M68.3333 8.33301H65V11.6663H68.3333V8.33301Z" fill="#292727"/>
<path d="M68.3333 15H65V18.3333H68.3333V15Z" fill="#292727"/>
<path d="M68.3333 18.333H65V21.6663H68.3333V18.333Z" fill="#292727"/>
<path d="M68.3333 25H65V28.3333H68.3333V25Z" fill="#292727"/>
<path d="M68.3333 31.6665H65V34.9998H68.3333V31.6665Z" fill="#292727"/>
<path d="M68.3333 45H65V48.3333H68.3333V45Z" fill="#292727"/>
<path d="M68.3333 51.6665H65V54.9998H68.3333V51.6665Z" fill="#292727"/>
<path d="M68.3333 55H65V58.3333H68.3333V55Z" fill="#292727"/>
<path d="M68.3333 68.333H65V71.6663H68.3333V68.333Z" fill="#292727"/>
<path d="M68.3333 71.6665H65V74.9998H68.3333V71.6665Z" fill="#292727"/>
<path d="M68.3333 81.6665H65V84.9998H68.3333V81.6665Z" fill="#292727"/>
<path d="M68.3333 85H65V88.3333H68.3333V85Z" fill="#292727"/>
<path d="M68.3333 88.333H65V91.6663H68.3333V88.333Z" fill="#292727"/>
<path d="M71.6668 1.6665H68.3335V4.99984H71.6668V1.6665Z" fill="#292727"/>
<path d="M71.6668 5H68.3335V8.33333H71.6668V5Z" fill="#292727"/>
<path d="M71.6668 11.6665H68.3335V14.9998H71.6668V11.6665Z" fill="#292727"/>
<path d="M71.6668 21.6665H68.3335V24.9998H71.6668V21.6665Z" fill="#292727"/>
<path d="M71.6668 25H68.3335V28.3333H71.6668V25Z" fill="#292727"/>
<path d="M71.6668 28.333H68.3335V31.6663H71.6668V28.333Z" fill="#292727"/>
<path d="M71.6668 38.333H68.3335V41.6663H71.6668V38.333Z" fill="#292727"/>
<path d="M71.6668 45H68.3335V48.3333H71.6668V45Z" fill="#292727"/>
<path d="M71.6668 65H68.3335V68.3333H71.6668V65Z" fill="#292727"/>
<path d="M71.6668 68.333H68.3335V71.6663H71.6668V68.333Z" fill="#292727"/>
<path d="M71.6668 71.6665H68.3335V74.9998H71.6668V71.6665Z" fill="#292727"/>
<path d="M71.6668 75H68.3335V78.3333H71.6668V75Z" fill="#292727"/>
<path d="M71.6668 78.333H68.3335V81.6663H71.6668V78.333Z" fill="#292727"/>
<path d="M71.6668 81.6665H68.3335V84.9998H71.6668V81.6665Z" fill="#292727"/>
<path d="M71.6668 85H68.3335V88.3333H71.6668V85Z" fill="#292727"/>
<path d="M71.6668 88.333H68.3335V91.6663H71.6668V88.333Z" fill="#292727"/>
<path d="M71.6668 91.6665H68.3335V94.9998H71.6668V91.6665Z" fill="#292727"/>
<path d="M75.0001 28.333H71.6667V31.6663H75.0001V28.333Z" fill="#292727"/>
<path d="M75.0001 31.6665H71.6667V34.9998H75.0001V31.6665Z" fill="#292727"/>
<path d="M75.0001 38.333H71.6667V41.6663H75.0001V38.333Z" fill="#292727"/>
<path d="M75.0001 45H71.6667V48.3333H75.0001V45Z" fill="#292727"/>
<path d="M75.0001 55H71.6667V58.3333H75.0001V55Z" fill="#292727"/>
<path d="M75.0001 68.333H71.6667V71.6663H75.0001V68.333Z" fill="#292727"/>
<path d="M75.0001 81.6665H71.6667V84.9998H75.0001V81.6665Z" fill="#292727"/>
<path d="M75.0001 85H71.6667V88.3333H75.0001V85Z" fill="#292727"/>
<path d="M78.3333 28.333H75V31.6663H78.3333V28.333Z" fill="#292727"/>
<path d="M78.3333 35H75V38.3333H78.3333V35Z" fill="#292727"/>
<path d="M78.3333 45H75V48.3333H78.3333V45Z" fill="#292727"/>
<path d="M78.3333 51.6665H75V54.9998H78.3333V51.6665Z" fill="#292727"/>
<path d="M78.3333 55H75V58.3333H78.3333V55Z" fill="#292727"/>
<path d="M78.3333 61.6665H75V64.9998H78.3333V61.6665Z" fill="#292727"/>
<path d="M78.3333 65H75V68.3333H78.3333V65Z" fill="#292727"/>
<path d="M78.3333 68.333H75V71.6663H78.3333V68.333Z" fill="#292727"/>
<path d="M78.3333 75H75V78.3333H78.3333V75Z" fill="#292727"/>
<path d="M78.3333 81.6665H75V84.9998H78.3333V81.6665Z" fill="#292727"/>
<path d="M78.3333 85H75V88.3333H78.3333V85Z" fill="#292727"/>
<path d="M81.6668 28.333H78.3335V31.6663H81.6668V28.333Z" fill="#292727"/>
<path d="M81.6668 31.6665H78.3335V34.9998H81.6668V31.6665Z" fill="#292727"/>
<path d="M81.6668 35H78.3335V38.3333H81.6668V35Z" fill="#292727"/>
<path d="M81.6668 38.333H78.3335V41.6663H81.6668V38.333Z" fill="#292727"/>
<path d="M81.6668 41.6665H78.3335V44.9998H81.6668V41.6665Z" fill="#292727"/>
<path d="M81.6668 45H78.3335V48.3333H81.6668V45Z" fill="#292727"/>
<path d="M81.6668 55H78.3335V58.3333H81.6668V55Z" fill="#292727"/>
<path d="M81.6668 58.333H78.3335V61.6663H81.6668V58.333Z" fill="#292727"/>
<path d="M81.6668 65H78.3335V68.3333H81.6668V65Z" fill="#292727"/>
<path d="M81.6668 68.333H78.3335V71.6663H81.6668V68.333Z" fill="#292727"/>
<path d="M81.6668 81.6665H78.3335V84.9998H81.6668V81.6665Z" fill="#292727"/>
<path d="M81.6668 91.6665H78.3335V94.9998H81.6668V91.6665Z" fill="#292727"/>
<path d="M81.6668 95H78.3335V98.3333H81.6668V95Z" fill="#292727"/>
<path d="M85.0001 28.333H81.6667V31.6663H85.0001V28.333Z" fill="#292727"/>
<path d="M85.0001 31.6665H81.6667V34.9998H85.0001V31.6665Z" fill="#292727"/>
<path d="M85.0001 35H81.6667V38.3333H85.0001V35Z" fill="#292727"/>
<path d="M85.0001 38.333H81.6667V41.6663H85.0001V38.333Z" fill="#292727"/>
<path d="M85.0001 45H81.6667V48.3333H85.0001V45Z" fill="#292727"/>
<path d="M85.0001 51.6665H81.6667V54.9998H85.0001V51.6665Z" fill="#292727"/>
<path d="M85.0001 55H81.6667V58.3333H85.0001V55Z" fill="#292727"/>
<path d="M85.0001 58.333H81.6667V61.6663H85.0001V58.333Z" fill="#292727"/>
<path d="M85.0001 65H81.6667V68.3333H85.0001V65Z" fill="#292727"/>
<path d="M85.0001 68.333H81.6667V71.6663H85.0001V68.333Z" fill="#292727"/>
<path d="M85.0001 71.6665H81.6667V74.9998H85.0001V71.6665Z" fill="#292727"/>
<path d="M85.0001 75H81.6667V78.3333H85.0001V75Z" fill="#292727"/>
<path d="M85.0001 78.333H81.6667V81.6663H85.0001V78.333Z" fill="#292727"/>
<path d="M85.0001 81.6665H81.6667V84.9998H85.0001V81.6665Z" fill="#292727"/>
<path d="M85.0001 85H81.6667V88.3333H85.0001V85Z" fill="#292727"/>
<path d="M88.3333 28.333H85V31.6663H88.3333V28.333Z" fill="#292727"/>
<path d="M88.3333 35H85V38.3333H88.3333V35Z" fill="#292727"/>
<path d="M88.3333 38.333H85V41.6663H88.3333V38.333Z" fill="#292727"/>
<path d="M88.3333 41.6665H85V44.9998H88.3333V41.6665Z" fill="#292727"/>
<path d="M88.3333 48.333H85V51.6663H88.3333V48.333Z" fill="#292727"/>
<path d="M88.3333 55H85V58.3333H88.3333V55Z" fill="#292727"/>
<path d="M88.3333 61.6665H85V64.9998H88.3333V61.6665Z" fill="#292727"/>
<path d="M88.3333 65H85V68.3333H88.3333V65Z" fill="#292727"/>
<path d="M88.3333 71.6665H85V74.9998H88.3333V71.6665Z" fill="#292727"/>
<path d="M88.3333 78.333H85V81.6663H88.3333V78.333Z" fill="#292727"/>
<path d="M88.3333 91.6665H85V94.9998H88.3333V91.6665Z" fill="#292727"/>
<path d="M91.6668 31.6665H88.3335V34.9998H91.6668V31.6665Z" fill="#292727"/>
<path d="M91.6668 35H88.3335V38.3333H91.6668V35Z" fill="#292727"/>
<path d="M91.6668 55H88.3335V58.3333H91.6668V55Z" fill="#292727"/>
<path d="M91.6668 58.333H88.3335V61.6663H91.6668V58.333Z" fill="#292727"/>
<path d="M91.6668 68.333H88.3335V71.6663H91.6668V68.333Z" fill="#292727"/>
<path d="M91.6668 78.333H88.3335V81.6663H91.6668V78.333Z" fill="#292727"/>
<path d="M91.6668 81.6665H88.3335V84.9998H91.6668V81.6665Z" fill="#292727"/>
<path d="M91.6668 88.333H88.3335V91.6663H91.6668V88.333Z" fill="#292727"/>
<path d="M91.6668 91.6665H88.3335V94.9998H91.6668V91.6665Z" fill="#292727"/>
<path d="M91.6668 95H88.3335V98.3333H91.6668V95Z" fill="#292727"/>
<path d="M95.0001 31.6665H91.6667V34.9998H95.0001V31.6665Z" fill="#292727"/>
<path d="M95.0001 41.6665H91.6667V44.9998H95.0001V41.6665Z" fill="#292727"/>
<path d="M95.0001 45H91.6667V48.3333H95.0001V45Z" fill="#292727"/>
<path d="M95.0001 48.333H91.6667V51.6663H95.0001V48.333Z" fill="#292727"/>
<path d="M95.0001 51.6665H91.6667V54.9998H95.0001V51.6665Z" fill="#292727"/>
<path d="M95.0001 61.6665H91.6667V64.9998H95.0001V61.6665Z" fill="#292727"/>
<path d="M95.0001 75H91.6667V78.3333H95.0001V75Z" fill="#292727"/>
<path d="M95.0001 78.333H91.6667V81.6663H95.0001V78.333Z" fill="#292727"/>
<path d="M95.0001 81.6665H91.6667V84.9998H95.0001V81.6665Z" fill="#292727"/>
<path d="M95.0001 85H91.6667V88.3333H95.0001V85Z" fill="#292727"/>
<path d="M95.0001 88.333H91.6667V91.6663H95.0001V88.333Z" fill="#292727"/>
<path d="M95.0001 95H91.6667V98.3333H95.0001V95Z" fill="#292727"/>
<path d="M98.3333 28.333H95V31.6663H98.3333V28.333Z" fill="#292727"/>
<path d="M98.3333 31.6665H95V34.9998H98.3333V31.6665Z" fill="#292727"/>
<path d="M98.3333 35H95V38.3333H98.3333V35Z" fill="#292727"/>
<path d="M98.3333 38.333H95V41.6663H98.3333V38.333Z" fill="#292727"/>
<path d="M98.3333 41.6665H95V44.9998H98.3333V41.6665Z" fill="#292727"/>
<path d="M98.3333 45H95V48.3333H98.3333V45Z" fill="#292727"/>
<path d="M98.3333 48.333H95V51.6663H98.3333V48.333Z" fill="#292727"/>
<path d="M98.3333 58.333H95V61.6663H98.3333V58.333Z" fill="#292727"/>
<path d="M98.3333 61.6665H95V64.9998H98.3333V61.6665Z" fill="#292727"/>
<path d="M98.3333 68.333H95V71.6663H98.3333V68.333Z" fill="#292727"/>
<path d="M98.3333 71.6665H95V74.9998H98.3333V71.6665Z" fill="#292727"/>
<path d="M98.3333 75H95V78.3333H98.3333V75Z" fill="#292727"/>
<path d="M98.3333 78.333H95V81.6663H98.3333V78.333Z" fill="#292727"/>
<path d="M98.3333 81.6665H95V84.9998H98.3333V81.6665Z" fill="#292727"/>
<path d="M98.3333 85H95V88.3333H98.3333V85Z" fill="#292727"/>
<path d="M1.66675 9.99984V16.6665C1.66675 18.8766 2.54472 20.9963 4.10752 22.5591C5.67033 24.1219 7.78994 24.9998 10.0001 24.9998H16.6667C18.8769 24.9998 20.9965 24.1219 22.5593 22.5591C24.1221 20.9963 25.0001 18.8766 25.0001 16.6665V9.99984C25.0001 7.7897 24.1221 5.67008 22.5593 4.10728C20.9965 2.54448 18.8769 1.6665 16.6667 1.6665H10.0001C7.78994 1.6665 5.67033 2.54448 4.10752 4.10728C2.54472 5.67008 1.66675 7.7897 1.66675 9.99984ZM10.0001 4.99984H16.6667C17.9928 4.99984 19.2646 5.52662 20.2023 6.4643C21.14 7.40198 21.6667 8.67375 21.6667 9.99984V16.6665C21.6667 17.9926 21.14 19.2644 20.2023 20.202C19.2646 21.1397 17.9928 21.6665 16.6667 21.6665H10.0001C8.674 21.6665 7.40223 21.1397 6.46455 20.202C5.52687 19.2644 5.00008 17.9926 5.00008 16.6665V9.99984C5.00008 8.67375 5.52687 7.40198 6.46455 6.4643C7.40223 5.52662 8.674 4.99984 10.0001 4.99984Z" fill="#292727"/>
<path d="M15.8333 8.3335H10.8333C9.45254 8.3335 8.33325 9.45278 8.33325 10.8335V15.8335C8.33325 17.2142 9.45254 18.3335 10.8333 18.3335H15.8333C17.214 18.3335 18.3333 17.2142 18.3333 15.8335V10.8335C18.3333 9.45278 17.214 8.3335 15.8333 8.3335Z" fill="#292727"/>
<path d="M89.9999 1.6665L83.3333 1.6665C81.1231 1.6665 79.0035 2.54448 77.4407 4.10728C75.8779 5.67008 74.9999 7.7897 74.9999 9.99984V16.6665C74.9999 18.8766 75.8779 20.9963 77.4407 22.5591C79.0035 24.1219 81.1231 24.9998 83.3333 24.9998H89.9999C92.2101 24.9998 94.3297 24.1219 95.8925 22.5591C97.4553 20.9963 98.3333 18.8766 98.3333 16.6665V9.99984C98.3333 7.7897 97.4553 5.67008 95.8925 4.10728C94.3297 2.54448 92.2101 1.6665 89.9999 1.6665ZM94.9999 9.99984V16.6665C94.9999 17.9926 94.4731 19.2644 93.5355 20.202C92.5978 21.1397 91.326 21.6665 89.9999 21.6665H83.3333C82.0072 21.6665 80.7354 21.1397 79.7977 20.202C78.86 19.2644 78.3333 17.9926 78.3333 16.6665V9.99984C78.3333 8.67375 78.86 7.40199 79.7977 6.4643C80.7354 5.52662 82.0072 4.99984 83.3333 4.99984L89.9999 4.99984C91.326 4.99984 92.5978 5.52662 93.5355 6.4643C94.4731 7.40199 94.9999 8.67375 94.9999 9.99984Z" fill="#292727"/>
<path d="M91.6667 15.8335V10.8335C91.6667 9.45278 90.5475 8.3335 89.1667 8.3335H84.1667C82.786 8.3335 81.6667 9.45278 81.6667 10.8335V15.8335C81.6667 17.2142 82.786 18.3335 84.1667 18.3335H89.1667C90.5475 18.3335 91.6667 17.2142 91.6667 15.8335Z" fill="#292727"/>
<path d="M10.0001 98.3335H16.6667C18.8769 98.3335 20.9965 97.4555 22.5593 95.8927C24.1221 94.3299 25.0001 92.2103 25.0001 90.0002V83.3335C25.0001 81.1234 24.1221 79.0037 22.5593 77.4409C20.9965 75.8781 18.8769 75.0002 16.6667 75.0002H10.0001C7.78994 75.0002 5.67033 75.8781 4.10752 77.4409C2.54472 79.0037 1.66675 81.1234 1.66675 83.3335L1.66675 90.0002C1.66675 92.2103 2.54472 94.3299 4.10752 95.8927C5.67033 97.4555 7.78994 98.3335 10.0001 98.3335ZM5.00008 90.0002L5.00008 83.3335C5.00008 82.0074 5.52687 80.7356 6.46455 79.798C7.40223 78.8603 8.674 78.3335 10.0001 78.3335H16.6667C17.9928 78.3335 19.2646 78.8603 20.2023 79.798C21.14 80.7356 21.6667 82.0074 21.6667 83.3335V90.0002C21.6667 91.3262 21.14 92.598 20.2023 93.5357C19.2646 94.4734 17.9928 95.0002 16.6667 95.0002H10.0001C8.674 95.0002 7.40223 94.4734 6.46455 93.5357C5.52687 92.598 5.00008 91.3262 5.00008 90.0002Z" fill="#292727"/>
<path d="M8.33325 84.1665V89.1665C8.33325 90.5472 9.45254 91.6665 10.8333 91.6665H15.8333C17.214 91.6665 18.3333 90.5472 18.3333 89.1665V84.1665C18.3333 82.7858 17.214 81.6665 15.8333 81.6665H10.8333C9.45254 81.6665 8.33325 82.7858 8.33325 84.1665Z" fill="#292727"/>
</g>
<defs>
<clipPath id="clip0_161_1415">
<rect width="100" height="100" fill="white"/>
</clipPath>
</defs>
</svg>
