<svg width="20" height="9" viewBox="0 0 20 9" fill="none" xmlns="http://www.w3.org/2000/svg">
<path d="M3.99411 0.733643C3.66011 0.748843 3.24769 0.951343 3.0121 1.23594C2.7961 1.48124 2.6114 1.87974 2.6582 2.25384C3.03539 2.28514 3.41243 2.06654 3.64802 1.78954C3.88002 1.50494 4.03331 1.12344 3.99411 0.733643ZM7.20029 1.49484V7.20964H8.1503V5.30474H9.4502C10.6434 5.30474 11.5002 4.51424 11.5002 3.39984C11.5002 2.28544 10.6591 1.49484 9.4815 1.49484H7.20029ZM8.1503 2.25684H9.2502C10.069 2.25684 10.5502 2.67784 10.5502 3.39984C10.5502 4.12174 10.073 4.54274 9.2502 4.54274H8.1503V2.25684ZM3.95036 2.44734C3.40037 2.44734 3.00718 2.73304 2.75038 2.73304C2.48959 2.73304 2.1004 2.45104 1.65041 2.45104C1.10042 2.45104 0.561779 2.77984 0.277779 3.25914C-0.305801 4.21734 0.126289 5.63584 0.690269 6.41574C0.966668 6.80204 1.30042 7.20964 1.75041 7.20964C2.1628 7.19484 2.30239 6.97154 2.80038 6.97154C3.30197 6.97154 3.45037 7.20964 3.90036 7.20964C4.35035 7.20964 4.62278 6.81694 4.89877 6.43064C5.21397 5.99244 5.34273 5.56534 5.35033 5.54284C5.34273 5.53564 4.47944 5.21984 4.47144 4.26894C4.46384 3.47424 5.15194 3.09524 5.18314 3.07314C4.79395 2.52374 4.15035 2.44734 4.00036 2.44734H3.95036ZM13.6798 3.01884C12.6843 3.01884 11.9485 3.55044 11.9213 4.28154H12.765C12.8346 3.93414 13.1797 3.70634 13.6525 3.70634C14.2257 3.70634 14.5493 3.95644 14.5493 4.41624L14.5501 4.73324L13.3775 4.79204C12.2891 4.85344 11.7002 5.26994 11.7002 5.99384C11.7002 6.72494 12.3083 7.21044 13.1798 7.21044C13.7686 7.21044 14.315 6.93174 14.5626 6.49014H14.5822V7.16654H15.4493V4.35824C15.4497 3.54334 14.753 3.01884 13.6798 3.01884ZM15.8001 3.01884L17.4032 7.19034L17.3172 7.44404C17.1725 7.87424 16.938 8.03934 16.5196 8.03934C16.448 8.03934 16.3125 8.03244 16.2501 8.02524V8.71284C16.3133 8.72614 16.5332 8.73364 16.6016 8.73364C17.5244 8.73364 17.9587 8.40294 18.3383 7.39944L20 3.01884H19.0383L17.9235 6.40384H17.904L16.7891 3.01884H15.8001ZM14.5501 5.30474L14.547 5.63514C14.547 6.16354 14.0666 6.53994 13.4314 6.53994C12.9318 6.53994 12.6142 6.31584 12.6142 5.97224C12.6142 5.61754 12.9204 5.41114 13.5056 5.37844L14.5501 5.30474Z" fill="#292727"/>
</svg>
