<svg width="24" height="25" viewBox="0 0 24 25" fill="none" xmlns="http://www.w3.org/2000/svg">
<path d="M6.5 16.7339C7.052 16.7339 7.5 17.1816 7.5 17.7339C7.5 18.2862 7.052 18.7339 6.5 18.7339C5.948 18.7339 5.5 18.2862 5.5 17.7339C5.5 17.1816 5.948 16.7339 6.5 16.7339Z" fill="#6A7282"/>
<path d="M8.5 16.7339C9.052 16.7339 9.5 17.1816 9.5 17.7339C9.5 18.2862 9.052 18.7339 8.5 18.7339C7.948 18.7339 7.5 18.2862 7.5 17.7339C7.5 17.1816 7.948 16.7339 8.5 16.7339Z" fill="#6A7282"/>
<path d="M17.5 16.7339C18.052 16.7339 18.5 17.1816 18.5 17.7339C18.5 18.2862 18.052 18.7339 17.5 18.7339C16.948 18.7339 16.5 18.2862 16.5 17.7339C16.5 17.1816 16.948 16.7339 17.5 16.7339Z" fill="#6A7282"/>
<path d="M15.833 11.7339C16.201 11.7339 16.5 12.0325 16.5 12.4009V14.4009C16.5 14.0325 16.799 13.7339 17.167 13.7339H18L19 14.7339V17.0669C19 17.4353 18.701 17.7339 18.333 17.7339H17.167C16.799 17.7339 16.5 17.4353 16.5 17.0669C16.5 17.4353 16.201 17.7339 15.833 17.7339H5.16699C4.79899 17.7339 4.5 17.4353 4.5 17.0669V12.4009C4.5 12.0325 4.79899 11.7339 5.16699 11.7339H15.833Z" fill="#FF7F3E"/>
<path d="M17.5 15.4009C17.5 15.0325 17.799 14.7339 18.167 14.7339H18.333C18.701 14.7339 19 15.0325 19 15.4009V15.5669C19 15.9353 18.701 16.2339 18.333 16.2339H18.167C17.799 16.2339 17.5 15.9353 17.5 15.5669V15.4009Z" fill="white"/>
<path d="M4.5 10.4009C4.5 10.0325 4.79899 9.73389 5.16699 9.73389H13.833C14.201 9.73389 14.5 10.0325 14.5 10.4009V15.0669C14.5 15.4353 14.201 15.7339 13.833 15.7339H5.16699C4.79899 15.7339 4.5 15.4353 4.5 15.0669V10.4009Z" fill="white"/>
<mask id="mask0_11_2936" style="mask-type:luminance" maskUnits="userSpaceOnUse" x="6" y="11" width="8" height="4">
<path d="M14 11.7339H6V14.7339H14V11.7339Z" fill="white"/>
</mask>
<g mask="url(#mask0_11_2936)">
<path d="M6.67603 13.1719C6.67603 12.9639 6.71902 12.7789 6.80502 12.6169C6.89302 12.4529 7.01703 12.3259 7.17703 12.2359C7.33703 12.1439 7.52103 12.0979 7.72903 12.0979C7.99303 12.0979 8.21502 12.1689 8.39502 12.3109C8.57502 12.4509 8.69104 12.6419 8.74304 12.8839H8.11002C8.07202 12.8039 8.01902 12.7429 7.95102 12.7009C7.88502 12.6589 7.80803 12.6379 7.72003 12.6379C7.58403 12.6379 7.47504 12.6869 7.39304 12.7849C7.31304 12.8809 7.27304 13.0099 7.27304 13.1719C7.27304 13.3359 7.31304 13.4669 7.39304 13.5649C7.47504 13.6609 7.58403 13.7089 7.72003 13.7089C7.80803 13.7089 7.88502 13.6879 7.95102 13.6459C8.01902 13.6039 8.07202 13.5429 8.11002 13.4629H8.74304C8.69104 13.7049 8.57502 13.8969 8.39502 14.0389C8.21502 14.1789 7.99303 14.2489 7.72903 14.2489C7.52103 14.2489 7.33703 14.2039 7.17703 14.1139C7.01703 14.0219 6.89302 13.8949 6.80502 13.7329C6.71902 13.5689 6.67603 13.3819 6.67603 13.1719ZM10.035 14.2549C9.83703 14.2549 9.65504 14.2089 9.48904 14.1169C9.32304 14.0229 9.19102 13.8939 9.09302 13.7299C8.99702 13.5639 8.94904 13.3769 8.94904 13.1689C8.94904 12.9609 8.99702 12.7749 9.09302 12.6109C9.19102 12.4449 9.32304 12.3159 9.48904 12.2239C9.65504 12.1319 9.83703 12.0859 10.035 12.0859C10.235 12.0859 10.417 12.1319 10.581 12.2239C10.747 12.3159 10.878 12.4449 10.974 12.6109C11.07 12.7749 11.118 12.9609 11.118 13.1689C11.118 13.3769 11.07 13.5639 10.974 13.7299C10.878 13.8939 10.747 14.0229 10.581 14.1169C10.415 14.2089 10.233 14.2549 10.035 14.2549ZM10.035 13.7089C10.185 13.7089 10.303 13.6599 10.389 13.5619C10.477 13.4639 10.521 13.3329 10.521 13.1689C10.521 13.0009 10.477 12.8689 10.389 12.7729C10.303 12.6749 10.185 12.6259 10.035 12.6259C9.88303 12.6259 9.76404 12.6749 9.67804 12.7729C9.59204 12.8689 9.54904 13.0009 9.54904 13.1689C9.54904 13.3349 9.59204 13.4669 9.67804 13.5649C9.76404 13.6609 9.88303 13.7089 10.035 13.7089ZM12.22 12.1189C12.442 12.1189 12.636 12.1639 12.802 12.2539C12.97 12.3419 13.099 12.4659 13.189 12.6259C13.279 12.7859 13.324 12.9689 13.324 13.1749C13.324 13.3789 13.278 13.5609 13.186 13.7209C13.096 13.8809 12.967 14.0069 12.799 14.0989C12.633 14.1889 12.44 14.2339 12.22 14.2339H11.383V12.1189H12.22ZM12.175 13.7149C12.347 13.7149 12.482 13.6679 12.58 13.5739C12.678 13.4799 12.727 13.3469 12.727 13.1749C12.727 13.0009 12.678 12.8669 12.58 12.7729C12.482 12.6769 12.347 12.6289 12.175 12.6289H11.971V13.7149H12.175Z" fill="#FF7F3E"/>
</g>
<path d="M4.5 18.9004H19.5" stroke="#6A7282" stroke-width="0.667"/>
<path d="M12.5 8.73388H8.5V8.06689H12.5V8.73388Z" fill="#FF7F3E"/>
<path d="M6.5 7.23388H5.5V6.56689H6.5V7.23388Z" fill="#FF7F3E"/>
<path d="M11.5 7.23388H7.5V6.56689H11.5V7.23388Z" fill="#FF7F3E"/>
</svg>
