<svg width="24" height="25" viewBox="0 0 24 25" fill="none" xmlns="http://www.w3.org/2000/svg">
<path d="M23 12.7336C23 6.65897 18.0747 1.73364 12 1.73364C5.92533 1.73364 1 6.65897 1 12.7336C1 18.2236 5.02194 22.7746 10.2814 23.6006V15.9141H7.48769V12.7336H10.2814V10.3097C10.2814 7.55308 11.9242 6.02938 14.4364 6.02938C15.6399 6.02938 16.899 6.2444 16.899 6.2444V8.95148H15.5115C14.1455 8.95148 13.7186 9.79918 13.7186 10.6701V12.7336H16.7691L16.2818 15.9141H13.7186V23.6006C18.9781 22.7761 23 18.2251 23 12.7336Z" fill="#1977F3"/>
<path d="M16.2818 15.914L16.7691 12.7336H13.7186V10.67C13.7186 9.80064 14.144 8.95139 15.5115 8.95139H16.899V6.24432C16.899 6.24432 15.6399 6.0293 14.4364 6.0293C11.9242 6.0293 10.2814 7.55145 10.2814 10.3096V12.7336H7.4877V15.914H10.2814V23.6005C10.8414 23.6887 11.4153 23.7336 12 23.7336C12.5847 23.7336 13.1586 23.6872 13.7186 23.6005V15.914H16.2818Z" fill="#FEFEFE"/>
</svg>
