<svg width="20" height="9" viewBox="0 0 20 9" fill="none" xmlns="http://www.w3.org/2000/svg">
<path d="M6.75956 4.25118C6.75956 4.01596 6.74035 3.78158 6.70016 3.5498H3.44812V4.87749H5.31025C5.2333 5.30606 4.98493 5.68473 4.62192 5.92528V6.78775H5.7336C6.38434 6.18858 6.75956 5.30084 6.75956 4.25118Z" fill="#4285F4"/>
<path d="M3.44757 7.62115C4.37821 7.62115 5.16186 7.31588 5.73305 6.78843L4.62137 5.92607C4.31171 6.13592 3.91373 6.25577 3.44757 6.25577C2.54845 6.25577 1.78485 5.64961 1.51194 4.83276H0.367065V5.72133C0.952138 6.88636 2.14431 7.62115 3.44757 7.62115Z" fill="#34A853"/>
<path d="M1.51228 4.83305C1.36799 4.40531 1.36799 3.94082 1.51228 3.51319V2.62451H0.367393C-0.122464 3.5989 -0.122464 4.74733 0.367393 5.72162L1.51228 4.83305Z" fill="#FBBC04"/>
<path d="M3.44757 2.08985C3.9391 2.08202 4.41403 2.26744 4.77004 2.60674L5.75487 1.62286C5.13033 1.03684 4.30378 0.714969 3.44757 0.724574C2.14431 0.724574 0.952138 1.46009 0.367065 2.62428L1.51194 3.51296C1.78485 2.69601 2.54845 2.08985 3.44757 2.08985Z" fill="#EA4335"/>
<path d="M8.99525 4.50263V6.9325H8.22382V0.930598H10.2688C10.7621 0.920054 11.2387 1.10725 11.5929 1.45011C11.9515 1.77292 12.1535 2.23469 12.1457 2.71662C12.1562 3.20209 11.9541 3.66741 11.5929 3.99095C11.2352 4.33214 10.7935 4.50263 10.2688 4.5018L8.99525 4.50263ZM8.99525 1.66967V3.76534H10.288C10.5749 3.77411 10.8512 3.66125 11.0506 3.45485C11.4556 3.06125 11.4652 2.41312 11.0708 2.00814C11.0638 2.00114 11.0576 1.99415 11.0506 1.98809C10.8538 1.77731 10.5757 1.66184 10.288 1.66967H8.99525ZM13.9229 2.69218C14.4933 2.69218 14.9429 2.8443 15.2726 3.14874C15.6024 3.45307 15.7668 3.8712 15.7668 4.40125V6.9325H15.0294V6.36215H14.9962C14.6769 6.83185 14.2518 7.06624 13.7219 7.06624C13.2696 7.06624 12.8909 6.9325 12.5865 6.66397C12.2909 6.41466 12.1229 6.0456 12.1299 5.65805C12.1299 5.23303 12.2909 4.89539 12.6119 4.64441C12.9329 4.39332 13.3615 4.26741 13.8985 4.26741C14.3559 4.26741 14.7337 4.35135 15.0294 4.5184V4.34175C15.0312 4.07761 14.9139 3.82746 14.7111 3.65947C14.5073 3.47583 14.2414 3.37529 13.9667 3.37873C13.5363 3.37873 13.1953 3.56071 12.9443 3.92361L12.2656 3.49598C12.6382 2.95977 13.1909 2.69218 13.9229 2.69218ZM12.925 5.67559C12.9241 5.875 13.0194 6.0622 13.1804 6.1785C13.3509 6.31235 13.5627 6.38407 13.7795 6.37969C14.1049 6.37885 14.4172 6.24939 14.6472 6.01929C14.9026 5.77874 15.0303 5.49717 15.0303 5.17268C14.7898 4.98111 14.4548 4.88485 14.0244 4.88485C13.7113 4.88485 13.4498 4.96012 13.2408 5.1114C13.03 5.2654 12.925 5.45165 12.925 5.67559ZM20 2.82592L17.426 8.74294H16.63L17.5852 6.67264L15.8919 2.82592H16.7297L17.9534 5.77614H17.97L19.1604 2.82592H20Z" fill="#292727"/>
</svg>
