<svg width="20" height="15" viewBox="0 0 20 15" fill="none" xmlns="http://www.w3.org/2000/svg">
<path d="M18.4062 0.921875H1.59381C0.714228 0.921875 0 1.63563 0 2.5161V12.951C0 13.8315 0.714228 14.5453 1.59381 14.5453H18.4062C19.2868 14.5453 20 13.8315 20 12.951V2.5161C20 1.63563 19.2868 0.921875 18.4062 0.921875Z" fill="white"/>
<path fill-rule="evenodd" clip-rule="evenodd" d="M10.1146 10.853C9.42375 11.4491 8.52693 11.809 7.54793 11.809C5.36369 11.809 3.59235 10.0174 3.59235 7.80726C3.59235 5.59706 5.36369 3.80542 7.54793 3.80542C8.52693 3.80542 9.42375 4.16528 10.1146 4.7614C10.8055 4.16528 11.7013 3.80542 12.6803 3.80542C14.8646 3.80542 16.6359 5.59706 16.6359 7.80726C16.6359 10.0174 14.8646 11.809 12.6803 11.809C11.7013 11.809 10.8055 11.4491 10.1146 10.853Z" fill="#ED0006"/>
<path fill-rule="evenodd" clip-rule="evenodd" d="M10.1147 10.853C10.9648 10.119 11.5046 9.0268 11.5046 7.80726C11.5046 6.58762 10.9648 5.49539 10.1147 4.7614C10.8056 4.16528 11.7014 3.80542 12.6804 3.80542C14.8656 3.80542 16.636 5.59706 16.636 7.80726C16.636 10.0174 14.8656 11.809 12.6804 11.809C11.7014 11.809 10.8056 11.4491 10.1147 10.853Z" fill="#F9A000"/>
<path fill-rule="evenodd" clip-rule="evenodd" d="M10.1147 4.76147C10.9648 5.49548 11.5045 6.58762 11.5045 7.80726C11.5045 9.0269 10.9648 10.119 10.1147 10.8531C9.26451 10.119 8.72479 9.0269 8.72479 7.80726C8.72479 6.58762 9.26451 5.49548 10.1147 4.76147Z" fill="#FF5E00"/>
</svg>
