<svg width="20" height="19" viewBox="0 0 20 19" fill="none" xmlns="http://www.w3.org/2000/svg">
<path d="M15.5303 9.02309C17.8513 9.02309 19.675 7.19941 19.675 4.87837C19.675 2.55732 17.8513 0.733643 15.5303 0.733643C13.2092 0.733643 11.3855 2.55732 11.3855 4.87837C11.3855 7.19941 13.2092 9.02309 15.5303 9.02309ZM15.5303 3.00732C16.5724 3.00732 17.3066 3.83626 17.3066 4.87837C17.3066 5.92047 16.5724 6.74941 15.5303 6.74941C14.4882 6.74941 13.7539 5.92047 13.7539 4.87837C13.7539 3.83626 14.4882 3.00732 15.5303 3.00732Z" fill="#A50064"/>
<path d="M7.02761 0.733643C6.35759 0.733643 5.67525 0.983036 5.16106 1.35488C4.68454 0.983036 4.0569 0.733643 3.40393 0.733643C1.67498 0.733643 0.324982 1.82311 0.324982 3.931V8.90467H2.6934V3.71784C2.6934 3.31521 2.97761 3.031 3.35656 3.031C3.73551 3.031 4.01972 3.31521 4.01972 3.71784V8.90467H6.38814V3.71784C6.38814 3.31521 6.67235 3.031 7.0513 3.031C7.43025 3.031 7.71446 3.31521 7.71446 3.71784V8.90467H10.0829V3.931C10.0829 1.82311 8.70919 0.733643 7.02761 0.733643Z" fill="#A50064"/>
<path d="M15.5303 10.4441C13.2092 10.4441 11.3855 12.2678 11.3855 14.5888C11.3855 16.9099 13.2092 18.7335 15.5303 18.7335C17.8513 18.7335 19.675 16.9099 19.675 14.5888C19.675 12.2678 17.8513 10.4441 15.5303 10.4441ZM15.5303 16.4599C14.4882 16.4599 13.7539 15.6309 13.7539 14.5888C13.7539 13.5467 14.4882 12.7178 15.5303 12.7178C16.5724 12.7178 17.3066 13.5467 17.3066 14.5888C17.3066 15.6309 16.5724 16.4599 15.5303 16.4599Z" fill="#A50064"/>
<path d="M7.02761 10.4441C6.35759 10.4441 5.67525 10.6935 5.16106 11.0653C4.68454 10.6935 4.0569 10.4441 3.40393 10.4441C1.67498 10.4441 0.324982 11.5336 0.324982 13.6415V18.6151H2.6934V13.4283C2.6934 13.0257 2.97761 12.7415 3.35656 12.7415C3.73551 12.7415 4.01972 13.0257 4.01972 13.4283V18.6151H6.38814V13.4283C6.38814 13.0257 6.67235 12.7415 7.0513 12.7415C7.43025 12.7415 7.71446 13.0257 7.71446 13.4283V18.6151H10.0829V13.6415C10.0829 11.5336 8.70919 10.4441 7.02761 10.4441Z" fill="#A50064"/>
</svg>
