<svg width="24" height="25" viewBox="0 0 24 25" fill="none" xmlns="http://www.w3.org/2000/svg">
<path d="M9.85045 10.418V9.53874C9.55135 9.4955 9.25226 9.47748 8.94955 9.47388C5.27027 9.47388 2.27928 12.4648 2.27928 16.1441C2.27928 18.3206 3.34234 20.3602 5.12613 21.607C4.01622 20.4143 3.35676 18.8179 3.35676 17.063C3.35316 13.4486 6.23964 10.4937 9.85045 10.418Z" fill="#25F4EE"/>
<path d="M10.009 20.1334C11.6487 20.1334 13.0108 18.8073 13.0721 17.1785L13.0757 2.67417L15.7063 2.65255C15.6487 2.34985 15.6198 2.03994 15.6198 1.73364H11.9982L11.991 16.2596C11.9334 17.9388 10.5243 19.2505 8.84867 19.1929C8.39101 19.1784 7.94416 19.0595 7.53696 18.8433C8.09191 19.6073 8.98921 20.1334 10.009 20.1334Z" fill="#25F4EE"/>
<path d="M20.6649 7.60746V6.77504C19.6883 6.77504 18.7333 6.49036 17.9189 5.95703C18.6252 6.76783 19.5802 7.37323 20.6649 7.60746Z" fill="#25F4EE"/>
<path d="M17.9189 5.95723C17.1189 5.04193 16.6793 3.86717 16.6793 2.64917H15.7063C15.9622 4.00771 16.7622 5.20409 17.9189 5.95723Z" fill="#FE2C55"/>
<path d="M8.94954 13.096C7.26665 13.0924 5.90089 14.4545 5.90089 16.1374C5.90089 17.2725 6.53152 18.3175 7.53692 18.84C6.55314 17.4779 6.85944 15.5788 8.218 14.5914C8.73692 14.2167 9.36395 14.0149 10.0054 14.0149C10.3117 14.0149 10.6144 14.0617 10.9063 14.1554V10.4582C10.6072 10.4149 10.3081 10.3933 10.0054 10.3933C9.95134 10.3933 9.90089 10.3969 9.84683 10.3969V13.2401C9.55854 13.1464 9.25584 13.096 8.94954 13.096Z" fill="#FE2C55"/>
<path d="M20.6649 7.58252V10.4005C18.8559 10.4041 17.0901 9.83474 15.6234 8.7789V16.1446C15.6234 19.8238 12.6288 22.8147 8.95315 22.8147C7.58378 22.8147 6.25045 22.3931 5.12973 21.6039C6.38739 22.9625 8.15676 23.7336 10.009 23.7336C13.6883 23.7336 16.6793 20.7427 16.6793 17.0635V9.6978C18.1496 10.7536 19.9117 11.323 21.7207 11.3194V7.69423C21.3676 7.69423 21.0144 7.65459 20.6649 7.58252Z" fill="#FE2C55"/>
<path d="M15.6234 16.1445V8.77881C17.0937 9.83465 18.8559 10.404 20.6649 10.4004V7.58243C19.5982 7.3518 18.6324 6.78244 17.9189 5.95723C16.7622 5.20409 15.9622 4.00771 15.7063 2.64917H13.0541L13.0504 17.1787C12.9928 18.8579 11.5838 20.1696 9.9045 20.112C8.96036 20.0795 8.08829 19.6111 7.54054 18.8435C6.04865 18.0652 5.47207 16.2237 6.25045 14.7355C6.77657 13.7301 7.81802 13.0959 8.95315 13.0995C9.25946 13.0995 9.56216 13.1463 9.85405 13.24V10.3968C6.24685 10.4797 3.33874 13.4382 3.33874 17.0634C3.33874 18.7498 3.97658 20.375 5.12973 21.6075C6.25045 22.3966 7.58378 22.8182 8.95315 22.8182C12.6288 22.8146 15.6234 19.8237 15.6234 16.1445Z" fill="black"/>
</svg>
