<svg width="20" height="15" viewBox="0 0 20 15" fill="none" xmlns="http://www.w3.org/2000/svg">
<path d="M20 12.8669C20 13.8978 19.147 14.7336 18.095 14.7336H1.905C0.852999 14.7336 0 13.8978 0 12.8669V2.60031C0 1.56944 0.852999 0.733643 1.905 0.733643H18.095C19.147 0.733643 20 1.56944 20 2.60031V12.8669Z" fill="#1565C0"/>
<path d="M6.298 5.73414L5.07199 9.29374C5.07199 9.29374 4.76 7.78804 4.729 7.59894C4.031 6.04864 3 6.13494 3 6.13494L4.215 10.7336L5.69199 10.7327L7.73401 5.73414H6.298ZM7.46799 10.7336H8.80899L9.62 5.73414H8.26199L7.46799 10.7336ZM16.961 5.73414H15.55L13.349 10.7336H14.681L14.956 10.0196H16.636L16.779 10.7336H18L16.961 5.73414ZM15.328 9.06474L16.058 7.17534L16.44 9.06474H15.328ZM11.523 7.19124C11.523 6.91584 11.756 6.71084 12.423 6.71084C12.857 6.71084 13.353 7.01714 13.353 7.01714L13.571 5.96774C13.571 5.96774 12.936 5.73364 12.314 5.73364C10.903 5.73364 10.176 6.38994 10.176 7.22074C10.176 8.72334 12.035 8.51744 12.035 9.28924C12.035 9.42144 11.927 9.72734 11.153 9.72734C10.376 9.72734 9.86401 9.45054 9.86401 9.45054L9.63199 10.4577C9.63199 10.4577 10.129 10.7331 11.089 10.7331C12.051 10.7331 13.385 10.0332 13.385 9.02784C13.385 7.81844 11.523 7.73114 11.523 7.19124Z" fill="white"/>
<path d="M5 7.73364L4.44601 6.08984C4.44601 6.08984 4.19601 5.73364 3.54501 5.73364C2.89401 5.73364 1 5.73364 1 5.73364C1 5.73364 4.245 6.31244 5 7.73364Z" fill="#FFC107"/>
</svg>
