<svg width="24" height="25" viewBox="0 0 24 25" fill="none" xmlns="http://www.w3.org/2000/svg">
<path fill-rule="evenodd" clip-rule="evenodd" d="M10.9841 1.80688H12.934C15.6121 1.80688 17.1771 2.20023 18.5663 2.94506C19.9555 3.68989 21.0519 4.77785 21.7883 6.16712C22.5331 7.55635 22.9265 9.12134 22.9265 11.7994V13.741C22.9265 16.419 22.5331 17.984 21.7883 19.3732C21.0435 20.7625 19.9555 21.8589 18.5663 22.5953C17.1771 23.3401 15.6121 23.7335 12.934 23.7335H10.9924C8.3144 23.7335 6.74942 23.3401 5.36018 22.5953C3.97096 21.8505 2.87463 20.7625 2.13817 19.3732C1.39334 17.984 1 16.419 1 13.741V11.7994C1 9.12134 1.39334 7.55635 2.13817 6.16712C2.883 4.77785 3.97096 3.68153 5.36018 2.94506C6.74108 2.20023 8.3144 1.80688 10.9841 1.80688Z" fill="#0068FF"/>
<path opacity="0.12" fill-rule="evenodd" clip-rule="evenodd" d="M22.9264 13.4207V13.7411C22.9264 16.4191 22.5331 17.9841 21.7882 19.3733C21.0434 20.7626 19.9554 21.8589 18.5662 22.5954C17.1769 23.3402 15.612 23.7336 12.9339 23.7336H10.9924C8.80104 23.7336 7.35494 23.4702 6.14057 22.9664L4.13853 20.9048L22.9264 13.4207Z" fill="#001A33"/>
<path fill-rule="evenodd" clip-rule="evenodd" d="M4.36086 20.9766C5.38633 21.09 6.66842 20.7976 7.57876 20.3556C11.5317 22.5406 17.711 22.4362 21.4513 20.0425C21.5964 19.8249 21.7319 19.5986 21.8577 19.364C22.6052 17.9697 23 16.399 23 13.7112V11.7626C23 9.07472 22.6052 7.50404 21.8577 6.10974C21.1185 4.71544 20.0182 3.62351 18.6239 2.87596C17.2296 2.12842 15.6589 1.73364 12.9711 1.73364H11.0141C8.72489 1.73364 7.23884 2.02181 5.99025 2.57195C5.922 2.63307 5.85503 2.69523 5.78947 2.75843C2.12632 6.28967 1.84787 13.9442 4.95409 18.1023C4.95755 18.1084 4.96139 18.1146 4.96561 18.1209C5.44438 18.8264 4.98241 20.0611 4.26006 20.7835C4.14247 20.8927 4.18447 20.9599 4.36086 20.9766Z" fill="white"/>
<path d="M10.0046 9.23877H5.7114V10.1594H8.6907L5.75321 13.7998C5.66116 13.9337 5.59424 14.0593 5.59424 14.3438V14.5781H9.64474C9.84561 14.5781 10.013 14.4108 10.013 14.2099V13.7161H6.88304L9.64474 10.2514C9.68659 10.2012 9.76191 10.1092 9.79541 10.0673L9.81214 10.0422C9.97116 9.80786 10.0046 9.60699 10.0046 9.36432V9.23877Z" fill="#0068FF"/>
<path d="M15.4692 14.5781H16.0801V9.23877H15.1595V14.2685C15.1595 14.4359 15.2934 14.5781 15.4692 14.5781Z" fill="#0068FF"/>
<path d="M12.3226 10.427C11.1677 10.427 10.2304 11.3643 10.2304 12.5192C10.2304 13.6741 11.1677 14.6114 12.3226 14.6114C13.4775 14.6114 14.4148 13.6741 14.4148 12.5192C14.4232 11.3643 13.4859 10.427 12.3226 10.427ZM12.3226 13.7494C11.6447 13.7494 11.0924 13.1971 11.0924 12.5192C11.0924 11.8414 11.6447 11.289 12.3226 11.289C13.0005 11.289 13.5528 11.8414 13.5528 12.5192C13.5528 13.1971 13.0089 13.7494 12.3226 13.7494Z" fill="#0068FF"/>
<path d="M18.8001 10.3936C17.6368 10.3936 16.6911 11.3393 16.6911 12.5025C16.6911 13.6658 17.6368 14.6115 18.8001 14.6115C19.9633 14.6115 20.909 13.6658 20.909 12.5025C20.909 11.3393 19.9633 10.3936 18.8001 10.3936ZM18.8001 13.7495C18.1138 13.7495 17.5614 13.1972 17.5614 12.5109C17.5614 11.8246 18.1138 11.2723 18.8001 11.2723C19.4863 11.2723 20.0387 11.8246 20.0387 12.5109C20.0387 13.1972 19.4863 13.7495 18.8001 13.7495Z" fill="#0068FF"/>
<path d="M13.9305 14.5778H14.4243V10.5439H13.5623V14.2179C13.5623 14.4104 13.7296 14.5778 13.9305 14.5778Z" fill="#0068FF"/>
</svg>
